<svg width="24" height="24" viewBox="0 0 24 24" fill="none" xmlns="http://www.w3.org/2000/svg">
<path d="M21.0313 8.50332C20.8171 8.13426 20.5099 7.8279 20.1402 7.61487C19.7705 7.40184 19.3514 7.28962 18.9247 7.28944H15.0549V5.9936C15.0549 5.46487 14.8448 4.95779 14.471 4.58391C14.0971 4.21004 13.59 4 13.0613 4H2.9936C2.46487 4 1.95778 4.21004 1.58391 4.58391C1.21004 4.95779 1 5.46487 1 5.9936V15.636C1 16.1647 1.21004 16.6718 1.58391 17.0457C1.95778 17.4195 2.46487 17.6296 2.9936 17.6296H3.90623C4.05343 18.2073 4.38889 18.7195 4.85961 19.0853C5.33033 19.4511 5.90951 19.6497 6.50566 19.6497C7.10182 19.6497 7.68099 19.4511 8.15171 19.0853C8.62243 18.7195 8.95789 18.2073 9.1051 17.6296H15.5777C15.7249 18.2073 16.0603 18.7195 16.531 19.0853C17.0018 19.4511 17.5809 19.6497 18.1771 19.6497C18.7732 19.6497 19.3524 19.4511 19.8231 19.0853C20.2939 18.7195 20.6293 18.2073 20.7765 17.6296H22.5619V11.9655C22.5609 11.4209 22.4165 10.8861 22.1432 10.415L21.0313 8.50332ZM18.9247 8.61851C19.1183 8.61845 19.3085 8.66915 19.4764 8.76553C19.6443 8.86192 19.784 9.00064 19.8816 9.16786L20.7677 10.6808H15.0549V8.60965L18.9247 8.61851ZM2.32907 15.636V5.9936C2.32907 5.81736 2.39908 5.64833 2.5237 5.5237C2.64833 5.39908 2.81736 5.32907 2.9936 5.32907H13.0613C13.2375 5.32907 13.4066 5.39908 13.5312 5.5237C13.6558 5.64833 13.7258 5.81736 13.7258 5.9936V16.3005H9.1051C8.95789 15.7228 8.62243 15.2106 8.15171 14.8448C7.68099 14.479 7.10182 14.2804 6.50566 14.2804C5.90951 14.2804 5.33033 14.479 4.85961 14.8448C4.38889 15.2106 4.05343 15.7228 3.90623 16.3005H2.9936C2.81736 16.3005 2.64833 16.2305 2.5237 16.1059C2.39908 15.9813 2.32907 15.8122 2.32907 15.636ZM6.50455 18.3229C6.2359 18.3229 5.97328 18.2432 5.74994 18.0939C5.52659 17.9446 5.35255 17.7324 5.24984 17.4842C5.14713 17.2359 5.12037 16.9628 5.17295 16.6993C5.22552 16.4359 5.35506 16.1939 5.54519 16.0041C5.73531 15.8143 5.97746 15.6852 6.24101 15.633C6.50455 15.5809 6.77764 15.6081 7.02572 15.7112C7.2738 15.8143 7.48572 15.9887 7.63465 16.2123C7.78359 16.4359 7.86286 16.6986 7.86242 16.9673C7.86183 17.327 7.71851 17.6718 7.46393 17.926C7.20934 18.1802 6.8643 18.3229 6.50455 18.3229ZM18.176 18.3229C17.9074 18.3229 17.6449 18.2433 17.4216 18.0941C17.1983 17.9449 17.0243 17.7328 16.9215 17.4847C16.8187 17.2366 16.7918 16.9635 16.8442 16.7001C16.8966 16.4367 17.0259 16.1948 17.2158 16.0049C17.4057 15.815 17.6477 15.6857 17.9111 15.6333C18.1745 15.5809 18.4475 15.6078 18.6956 15.7106C18.9437 15.8133 19.1558 15.9874 19.305 16.2107C19.4542 16.434 19.5338 16.6965 19.5338 16.9651C19.5338 17.3252 19.3908 17.6706 19.1361 17.9252C18.8815 18.1799 18.5361 18.3229 18.176 18.3229ZM20.7765 16.3005C20.6293 15.7228 20.2939 15.2106 19.8231 14.8448C19.3524 14.479 18.7732 14.2804 18.1771 14.2804C17.5809 14.2804 17.0018 14.479 16.531 14.8448C16.0603 15.2106 15.7249 15.7228 15.5777 16.3005H15.0549V12.001H21.2328V16.3005H20.7765Z" fill="white"/>
<path d="M8.0883 13.9612C8.84648 13.9603 9.58738 13.7347 10.2173 13.3128C10.8473 12.891 11.3381 12.2918 11.6276 11.5911C11.9172 10.8904 11.9925 10.1196 11.844 9.37608C11.6956 8.63258 11.33 7.94978 10.7936 7.41397C10.2572 6.87817 9.57396 6.51343 8.83029 6.36583C8.08662 6.21824 7.31588 6.29444 6.6155 6.58478C5.91512 6.87512 5.31654 7.36658 4.89541 7.99704C4.47428 8.6275 4.24951 9.36866 4.24951 10.1268C4.25069 11.1442 4.65565 12.1195 5.37543 12.8384C6.09522 13.5574 7.07096 13.9612 8.0883 13.9612ZM8.0883 7.62376C8.58371 7.62464 9.06773 7.77237 9.47919 8.04829C9.89065 8.3242 10.2111 8.71591 10.3999 9.1739C10.5888 9.63189 10.6377 10.1356 10.5403 10.6213C10.443 11.1071 10.2038 11.5531 9.85303 11.9029C9.50226 12.2527 9.05565 12.4907 8.56964 12.5868C8.08364 12.6829 7.58007 12.6327 7.12258 12.4426C6.6651 12.2525 6.27424 11.931 5.99941 11.5188C5.72459 11.1067 5.57814 10.6222 5.57858 10.1268C5.57829 9.79718 5.643 9.47069 5.76903 9.16607C5.89505 8.86144 6.0799 8.58466 6.31301 8.35155C6.54612 8.11844 6.8229 7.93359 7.12753 7.80756C7.43215 7.68154 7.75864 7.61683 8.0883 7.61712V7.62376Z" fill="white"/>
<path d="M8.05516 10.898H9.19373C9.36998 10.898 9.539 10.828 9.66363 10.7034C9.78825 10.5787 9.85826 10.4097 9.85826 10.2335C9.85826 10.0572 9.78825 9.88821 9.66363 9.76358C9.539 9.63896 9.36998 9.56894 9.19373 9.56894H8.7197V8.76707C8.7197 8.59083 8.64968 8.4218 8.52506 8.29718C8.40043 8.17255 8.23141 8.10254 8.05516 8.10254C7.87892 8.10254 7.70989 8.17255 7.58527 8.29718C7.46064 8.4218 7.39063 8.59083 7.39063 8.76707V10.2313C7.39034 10.3187 7.40731 10.4054 7.44058 10.4862C7.47384 10.5671 7.52274 10.6406 7.58448 10.7026C7.64622 10.7645 7.71957 10.8137 7.80034 10.8472C7.88111 10.8807 7.96771 10.898 8.05516 10.898Z" fill="white"/>
</svg>
