<svg width="24" height="24" viewBox="0 0 24 24" fill="none" xmlns="http://www.w3.org/2000/svg">
<path d="M21.3439 4.31193H18.8784C18.5164 4.31193 18.2227 4.01817 18.2227 3.65621C18.2227 3.29425 18.5164 3.00049 18.8784 3.00049H21.3439C21.7058 3.00049 21.9996 3.29425 21.9996 3.65621C21.9996 4.01817 21.7058 4.31193 21.3439 4.31193Z" fill="white"/>
<path d="M15.5433 17.9449C15.4915 17.9449 15.4394 17.9386 15.3866 17.9259C15.0351 17.8396 14.8197 17.4849 14.9056 17.1331L18.2419 3.49999C18.3281 3.14787 18.6839 2.93279 19.0347 3.01902C19.3861 3.10525 19.6015 3.45999 19.5156 3.81179L16.1793 17.4449C16.1059 17.7442 15.838 17.9449 15.5433 17.9449Z" fill="white"/>
<path d="M15.5421 17.945C15.5411 17.945 15.5398 17.945 15.5385 17.945L5.18337 17.8905C4.82142 17.8886 4.52929 17.5935 4.53126 17.2312C4.53323 16.8702 4.82633 16.5791 5.18698 16.5791C5.18796 16.5791 5.18928 16.5791 5.19059 16.5791L15.5457 16.6335C15.9077 16.6355 16.1998 16.9306 16.1978 17.2929C16.1959 17.6535 15.9024 17.945 15.5421 17.945Z" fill="white"/>
<path d="M5.18739 17.8906C4.92347 17.8906 4.67495 17.7303 4.57495 17.469L2.04354 10.8573C1.91404 10.519 2.08321 10.14 2.42124 10.0105C2.75959 9.88064 3.13859 10.0501 3.2681 10.3882L5.79951 17.0001C5.92901 17.3382 5.75984 17.7175 5.42181 17.847C5.34477 17.8765 5.26543 17.8906 5.18739 17.8906Z" fill="white"/>
<path d="M14.2409 21.8697C13.1861 21.8697 12.3281 21.0284 12.3281 19.994C12.3281 18.9596 13.1861 18.1177 14.2409 18.1177C15.2956 18.1177 16.1536 18.9593 16.1536 19.994C16.1536 21.0284 15.2956 21.8697 14.2409 21.8697ZM14.2409 19.4294C13.9091 19.4294 13.6396 19.6826 13.6396 19.9943C13.6396 20.3055 13.9091 20.5586 14.2409 20.5586C14.5727 20.5586 14.8422 20.3058 14.8422 19.9943C14.8422 19.6826 14.5727 19.4294 14.2409 19.4294Z" fill="white"/>
<path d="M6.42641 21.8014C5.37168 21.8014 4.51367 20.9601 4.51367 19.9257C4.51367 18.8913 5.37168 18.0493 6.42641 18.0493C7.48114 18.0493 8.33915 18.8909 8.33915 19.9257C8.33915 20.9601 7.48114 21.8014 6.42641 21.8014ZM6.42641 19.3611C6.09494 19.3611 5.82511 19.6142 5.82511 19.926C5.82511 20.2371 6.09494 20.4902 6.42641 20.4902C6.75788 20.4902 7.02771 20.2375 7.02771 19.926C7.02771 19.6142 6.75788 19.3611 6.42641 19.3611Z" fill="white"/>
<path d="M11.7578 14.0378C11.5351 14.0378 11.3279 13.925 11.2069 13.7381L10.0562 11.9585C9.926 11.7572 9.91616 11.5008 10.0306 11.2897C10.145 11.0789 10.3653 10.9474 10.605 10.9467L12.8974 10.9402C12.8981 10.9402 12.8987 10.9402 12.8994 10.9402C13.1384 10.9402 13.3587 11.0703 13.4741 11.2802C13.5898 11.4903 13.581 11.7471 13.4521 11.949L12.3102 13.7349C12.1899 13.9227 11.9823 14.0368 11.7594 14.0375C11.7587 14.0378 11.7578 14.0378 11.7578 14.0378Z" fill="white"/>
<path d="M11.7983 12.8965C11.4363 12.8965 11.1426 12.6028 11.1426 12.2408V7.90059C11.1426 7.53864 11.4363 7.24487 11.7983 7.24487C12.1603 7.24487 12.454 7.53864 12.454 7.90059V12.2408C12.454 12.6031 12.1603 12.8965 11.7983 12.8965Z" fill="white"/>
<path d="M9.2918 10.0984C9.29114 10.0984 9.29016 10.0984 9.29016 10.0984L6.99776 10.0919C6.75776 10.0912 6.53744 9.95975 6.42302 9.74894C6.30859 9.53779 6.31876 9.28141 6.44892 9.0801L7.59971 7.30113C7.72069 7.11425 7.9279 7.00146 8.15019 7.00146C8.15084 7.00146 8.15117 7.00146 8.15182 7.00146C8.37477 7.00212 8.58231 7.11589 8.70263 7.30375L9.84424 9.08895C9.97342 9.29124 9.98194 9.54763 9.86654 9.75812C9.75146 9.96827 9.53113 10.0984 9.2918 10.0984Z" fill="white"/>
<path d="M8.19088 13.7942C7.82892 13.7942 7.53516 13.5005 7.53516 13.1385V8.7983C7.53516 8.43634 7.82892 8.14258 8.19088 8.14258C8.55284 8.14258 8.8466 8.43634 8.8466 8.7983V13.1385C8.8466 13.5008 8.55284 13.7942 8.19088 13.7942Z" fill="white"/>
</svg>
