<svg width="24" height="24" viewBox="0 0 24 24" fill="none" xmlns="http://www.w3.org/2000/svg">
<g clip-path="url(#clip0_737_61575)">
<path d="M23.5454 14.3109L18.2954 12.0609C18.2021 12.0207 18.1016 12 18 12C17.8984 12 17.7979 12.0207 17.7046 12.0609L12.4546 14.3109C12.3197 14.3687 12.2047 14.4647 12.1239 14.5872C12.0431 14.7097 12 14.8532 12 15V21C12 21.1468 12.043 21.2903 12.1239 21.4129C12.2047 21.5354 12.3197 21.6315 12.4546 21.6892L17.7046 23.9392C17.798 23.9793 17.8984 24 18 24C18.1016 24 18.202 23.9793 18.2954 23.9392L23.5454 21.6892C23.6803 21.6315 23.7953 21.5354 23.8761 21.4129C23.957 21.2903 24 21.1468 24 21V15C24 14.8532 23.9569 14.7097 23.8761 14.5872C23.7953 14.4647 23.6803 14.3687 23.5454 14.3109ZM18 16.4342L17.2196 16.0998L20.4421 14.6126L21.3463 15L18 16.4342ZM18 13.5661L18.5858 13.8171L15.3634 15.3043L14.6536 15L18 13.5661ZM13.5 16.1374L14.625 16.6195V18.75C14.625 18.9489 14.704 19.1397 14.8447 19.2803C14.9853 19.421 15.1761 19.5 15.375 19.5C15.5739 19.5 15.7647 19.421 15.9053 19.2803C16.046 19.1397 16.125 18.9489 16.125 18.75V17.2623L17.25 17.7445V22.1127L13.5 20.5057V16.1374ZM18.75 22.1127V17.7445L22.5 16.1373V20.5057L18.75 22.1127ZM10.125 19.875H2.25C2.05116 19.8748 1.86052 19.7957 1.71992 19.6551C1.57932 19.5145 1.50023 19.3238 1.5 19.125V4.125C1.50023 3.92616 1.57932 3.73553 1.71992 3.59492C1.86052 3.45432 2.05116 3.37523 2.25 3.375H3.78375C3.87261 3.89875 4.1438 4.37422 4.54937 4.71734C4.95494 5.06046 5.46876 5.24913 6 5.25H11.25C11.7812 5.24913 12.2951 5.06045 12.7006 4.71733C13.1062 4.37422 13.3774 3.89875 13.4662 3.375H15C15.1988 3.37523 15.3895 3.45432 15.5301 3.59492C15.6707 3.73553 15.7498 3.92616 15.75 4.125V10.5C15.75 10.6989 15.829 10.8897 15.9697 11.0303C16.1103 11.171 16.3011 11.25 16.5 11.25C16.6989 11.25 16.8897 11.171 17.0303 11.0303C17.171 10.8897 17.25 10.6989 17.25 10.5V4.125C17.2493 3.52846 17.0121 2.95655 16.5903 2.53473C16.1685 2.11292 15.5965 1.87566 15 1.875H13.4662C13.3774 1.35125 13.1062 0.875785 12.7006 0.532667C12.2951 0.189549 11.7812 0.000874394 11.25 0H6C5.46876 0.000866937 4.95494 0.189538 4.54937 0.532658C4.1438 0.875777 3.87261 1.35125 3.78375 1.875H2.25C1.65346 1.87566 1.08155 2.11292 0.659733 2.53473C0.237918 2.95655 0.000655109 3.52846 0 4.125V19.125C0.000655109 19.7215 0.237918 20.2935 0.659733 20.7153C1.08155 21.1371 1.65346 21.3743 2.25 21.375H10.125C10.3239 21.375 10.5147 21.296 10.6553 21.1553C10.796 21.0147 10.875 20.8239 10.875 20.625C10.875 20.4261 10.796 20.2353 10.6553 20.0947C10.5147 19.954 10.3239 19.875 10.125 19.875ZM5.25 2.25C5.25023 2.05116 5.32932 1.86052 5.46992 1.71992C5.61053 1.57932 5.80116 1.50023 6 1.5H11.25C11.4488 1.50023 11.6395 1.57932 11.7801 1.71992C11.9207 1.86052 11.9998 2.05116 12 2.25V3C11.9998 3.19884 11.9207 3.38947 11.7801 3.53008C11.6395 3.67068 11.4488 3.74977 11.25 3.75H6C5.80116 3.74977 5.61053 3.67068 5.46992 3.53008C5.32932 3.38947 5.25023 3.19884 5.25 3V2.25ZM6.84375 8.08556L4.96875 9.58556C4.82466 9.70091 4.64307 9.75906 4.45878 9.74886C4.27448 9.73866 4.10042 9.66083 3.96994 9.53029L2.84494 8.40529C2.70753 8.26399 2.63127 8.07428 2.63265 7.87719C2.63402 7.6801 2.71293 7.49147 2.85229 7.3521C2.99165 7.21273 3.18028 7.13383 3.37737 7.13244C3.57446 7.13106 3.76417 7.20731 3.90548 7.34471L4.55569 7.995L5.90644 6.91432C6.06198 6.7926 6.25925 6.73714 6.45543 6.75999C6.65162 6.78284 6.83087 6.88215 6.95427 7.03636C7.07767 7.19058 7.13525 7.38724 7.11453 7.58366C7.0938 7.78008 6.99662 7.9605 6.84375 8.08556ZM13.5 7.875C13.6989 7.875 13.8897 7.95402 14.0303 8.09467C14.171 8.23532 14.25 8.42609 14.25 8.625C14.25 8.82391 14.171 9.01468 14.0303 9.15533C13.8897 9.29598 13.6989 9.375 13.5 9.375H8.625C8.42609 9.375 8.23532 9.29598 8.09467 9.15533C7.95402 9.01468 7.875 8.82391 7.875 8.625C7.875 8.42609 7.95402 8.23532 8.09467 8.09467C8.23532 7.95402 8.42609 7.875 8.625 7.875H13.5ZM6.84375 12.2106L4.96875 13.7106C4.82466 13.8259 4.64307 13.8841 4.45878 13.8739C4.27448 13.8637 4.10042 13.7858 3.96994 13.6553L2.84494 12.5303C2.70753 12.389 2.63127 12.1993 2.63265 12.0022C2.63402 11.8051 2.71293 11.6165 2.85229 11.4771C2.99165 11.3377 3.18028 11.2588 3.37737 11.2574C3.57446 11.2561 3.76417 11.3323 3.90548 11.4697L4.55569 12.12L5.90644 11.0393C6.06198 10.9176 6.25925 10.8621 6.45543 10.885C6.65162 10.9078 6.83087 11.0072 6.95427 11.1614C7.07767 11.3156 7.13525 11.5122 7.11453 11.7087C7.0938 11.9051 6.99662 12.0855 6.84375 12.2106ZM11.625 12.75C11.625 12.9489 11.546 13.1397 11.4053 13.2803C11.2647 13.421 11.0739 13.5 10.875 13.5H8.625C8.42609 13.5 8.23532 13.421 8.09467 13.2803C7.95402 13.1397 7.875 12.9489 7.875 12.75C7.875 12.5511 7.95402 12.3603 8.09467 12.2197C8.23532 12.079 8.42609 12 8.625 12H10.875C11.0739 12 11.2647 12.079 11.4053 12.2197C11.546 12.3603 11.625 12.5511 11.625 12.75ZM6.96056 15.2816C7.02211 15.3585 7.06791 15.4467 7.09534 15.5413C7.12278 15.6359 7.1313 15.735 7.12044 15.8328C7.10957 15.9307 7.07953 16.0255 7.03202 16.1117C6.98451 16.198 6.92047 16.2741 6.84356 16.3356L4.96856 17.8356C4.82447 17.9509 4.64289 18.0091 4.45859 17.9989C4.27429 17.9887 4.10024 17.9108 3.96975 17.7803L2.84475 16.6553C2.70735 16.514 2.63108 16.3243 2.63246 16.1272C2.63384 15.9301 2.71274 15.7415 2.8521 15.6021C2.99147 15.4627 3.18009 15.3838 3.37718 15.3824C3.57427 15.3811 3.76398 15.4573 3.90529 15.5947L4.55569 16.245L5.90644 15.1643C5.98333 15.1028 6.0716 15.0569 6.16621 15.0295C6.26082 15.0021 6.35991 14.9936 6.45782 15.0045C6.55572 15.0154 6.65051 15.0454 6.73678 15.093C6.82304 15.1406 6.89909 15.2047 6.96056 15.2816ZM10.875 16.875C10.875 17.0739 10.796 17.2647 10.6553 17.4053C10.5147 17.546 10.3239 17.625 10.125 17.625H8.625C8.42609 17.625 8.23532 17.546 8.09467 17.4053C7.95402 17.2647 7.875 17.0739 7.875 16.875C7.875 16.6761 7.95402 16.4853 8.09467 16.3447C8.23532 16.204 8.42609 16.125 8.625 16.125H10.125C10.3239 16.125 10.5147 16.204 10.6553 16.3447C10.796 16.4853 10.875 16.6761 10.875 16.875Z" fill="white"/>
</g>
<defs>
<clipPath id="clip0_737_61575">
<rect width="24" height="24" fill="white"/>
</clipPath>
</defs>
</svg>
