<svg width="20" height="26" viewBox="0 0 20 26" fill="none" xmlns="http://www.w3.org/2000/svg">
<path d="M8.47272 12.1754H13.4556C13.6775 12.1754 13.8572 11.9956 13.8572 11.7737C13.8572 11.5519 13.6775 11.3721 13.4556 11.3721H8.47272C8.25087 11.3721 8.07109 11.5519 8.07109 11.7737C8.07109 11.9956 8.25092 12.1754 8.47272 12.1754Z" fill="white" stroke="white" stroke-width="0.1"/>
<path d="M7.30034 10.353C7.14354 10.1962 6.88923 10.1962 6.73237 10.3531C6.73237 10.3531 6.73237 10.3531 6.73237 10.3531L5.87984 11.2056L5.53755 10.8633L5.53753 10.8633C5.38064 10.7065 5.12639 10.7065 4.96954 10.8633L4.96953 10.8633C4.81264 11.0202 4.81263 11.2745 4.96949 11.4314L5.59576 12.0576L5.59578 12.0576C5.67111 12.1329 5.77323 12.1752 5.87979 12.1752C5.98636 12.1752 6.08843 12.1329 6.16381 12.0576L6.16382 12.0576L7.30038 10.921C7.45723 10.7641 7.45724 10.5098 7.30034 10.353ZM7.30034 10.353L7.26498 10.3884M7.30034 10.353C7.30033 10.353 7.30033 10.353 7.30032 10.353L7.26498 10.3884M7.26498 10.3884C7.12771 10.2511 6.90505 10.251 6.76773 10.3884L5.91519 11.241L5.00489 10.8987C4.86752 11.036 4.86752 11.2587 5.00484 11.396L5.63112 12.0223C5.69708 12.0882 5.78649 12.1252 5.87979 12.1252C5.97309 12.1252 6.06245 12.0882 6.12847 12.0222L7.26503 10.8856C7.40235 10.7483 7.40235 10.5256 7.26498 10.3884Z" fill="white" stroke="white" stroke-width="0.1"/>
<path d="M7.15397 14.0683V14.0183H7.15202C7.12641 13.6829 6.84546 13.418 6.50367 13.418H5.76627C5.40766 13.418 5.11602 13.7097 5.11602 14.0683V14.8057C5.11602 15.1643 5.40766 15.4559 5.76627 15.4559H6.50371C6.86232 15.4559 7.15397 15.1643 7.15397 14.8057V14.0683ZM6.35066 14.6527H5.91928V14.2213H6.35066V14.6527Z" fill="white" stroke="white" stroke-width="0.1"/>
<path d="M7.15397 17.352V17.352C7.15392 16.9933 6.86228 16.7017 6.50367 16.7017H5.76627C5.40766 16.7017 5.11602 16.9933 5.11602 17.352V18.0894C5.11602 18.448 5.40766 18.7397 5.76627 18.7397H6.50371C6.86233 18.7397 7.15397 18.448 7.15397 18.0894V17.352ZM6.35066 17.9364H5.91928V17.505H6.35066V17.9364Z" fill="white" stroke="white" stroke-width="0.1"/>
<path d="M7.3003 7.06957C7.1435 6.91277 6.88919 6.91271 6.73233 7.06961C6.73233 7.06962 6.73233 7.06962 6.73233 7.06962L5.8798 7.92219L5.5375 7.57985L5.53749 7.57984C5.3806 7.42306 5.12635 7.42305 4.9695 7.57985L4.96949 7.57986C4.81265 7.73675 4.81264 7.99101 4.96949 8.14786C4.96949 8.14786 4.96949 8.14786 4.96949 8.14786L5.59572 8.77418L5.59574 8.7742C5.67107 8.84948 5.77319 8.89179 5.87975 8.89179C5.98632 8.89179 6.08839 8.84948 6.16377 8.77415L6.16378 8.77414L7.30034 7.63753C7.45719 7.48069 7.4572 7.22638 7.3003 7.06957ZM7.3003 7.06957L7.26494 7.10492M7.3003 7.06957C7.30029 7.06956 7.30029 7.06956 7.30028 7.06956L7.26494 7.10492M7.26494 7.10492C7.40231 7.2422 7.40231 7.46485 7.26499 7.60217L6.12842 8.73879C6.06241 8.80475 5.97305 8.84179 5.87975 8.84179C5.78645 8.84179 5.69704 8.80475 5.63108 8.73883L5.00485 8.11251L5.91515 7.95755L6.76769 7.10497C6.90501 6.9676 7.12766 6.96765 7.26494 7.10492Z" fill="white" stroke="white" stroke-width="0.1"/>
<path d="M8.47272 8.89169H13.4556C13.6775 8.89169 13.8572 8.71191 13.8572 8.49006C13.8572 8.2682 13.6775 8.08843 13.4556 8.08843H8.47272C8.25087 8.08843 8.07109 8.2682 8.07109 8.49006C8.07109 8.71192 8.25092 8.89169 8.47272 8.89169Z" fill="white" stroke="white" stroke-width="0.1"/>
<mask id="path-7-outside-1_737_61531" maskUnits="userSpaceOnUse" x="0" y="0" width="20" height="26" fill="black">
<rect fill="white" width="20" height="26"/>
<path d="M19.2457 15.6695C19.2203 15.4043 19.0639 15.1736 18.8271 15.0522L18.7482 15.0118C18.9748 14.6016 19.2802 13.8647 19.2199 12.9458C19.1948 12.5619 18.8863 12.2533 18.5023 12.2282C18.1886 12.2078 17.8966 12.2306 17.6309 12.2776V2.59467C17.631 1.71536 16.9156 1 16.0364 1H2.59462C1.71531 1 1 1.71536 1 2.59467V18.5334C1 18.7276 1.15739 18.885 1.35163 18.885C1.54587 18.885 1.70326 18.7276 1.70326 18.5334V2.59467C1.70326 2.10314 2.10314 1.70326 2.59462 1.70326H16.0363C16.5278 1.70326 16.9277 2.10314 16.9277 2.59467V12.4724C16.7336 12.5466 16.5679 12.6272 16.4363 12.7L16.3959 12.621C16.3349 12.502 16.2462 12.4032 16.1394 12.3313V3.3405C16.1394 2.87246 15.7586 2.49166 15.2906 2.49166H5.98706C5.79282 2.49166 5.63543 2.64905 5.63543 2.84329C5.63543 3.03753 5.79282 3.19492 5.98706 3.19492H6.5559V4.14203C6.5559 4.61003 6.93669 4.99082 7.40469 4.99082H11.2263C11.6943 4.99082 12.0751 4.61003 12.0751 4.14203V3.19488H15.2905C15.3708 3.19488 15.4361 3.26023 15.4361 3.34045V12.2472C15.3052 12.2957 15.1881 12.3796 15.0989 12.4936C14.8537 12.8068 14.6976 13.1263 14.5979 13.404C13.8429 13.0641 13.151 13.2005 12.5413 13.8102C12.2777 14.0738 11.9967 14.3748 11.7046 14.7057H8.4729C8.27866 14.7057 8.12127 14.8631 8.12127 15.0573C8.12127 15.2516 8.27866 15.409 8.4729 15.409H11.1049C10.9225 15.6297 10.7378 15.8592 10.5519 16.0963C10.4321 16.2492 10.4589 16.4702 10.6117 16.59C10.7646 16.7098 10.9856 16.683 11.1054 16.5301C11.2839 16.3023 11.4612 16.0819 11.6361 15.87C12.0279 16.2841 12.6916 16.9796 13.2879 17.576C13.3566 17.6447 13.4465 17.679 13.5366 17.679C13.6265 17.679 13.7166 17.6447 13.7852 17.576C13.9226 17.4387 13.9226 17.2161 13.7852 17.0788C13.1663 16.4598 12.4729 15.7316 12.0931 15.3297C12.4252 14.947 12.7436 14.6025 13.0386 14.3076C13.8348 13.5112 14.5681 13.9874 16.0144 15.4337C17.4609 16.8801 17.937 17.6133 17.1406 18.4096C15.9011 19.6492 13.9043 21.1989 12.0332 22.3849L11.3648 21.7165C11.2274 21.5792 11.0048 21.5792 10.8675 21.7165C10.7302 21.8538 10.7302 22.0764 10.8675 22.2138L11.4179 22.7642C10.3613 23.3968 9.42057 23.8586 8.69321 24.1006C7.67596 24.4391 7.35865 24.268 7.26948 24.1787C7.16966 24.079 6.9058 23.6178 7.69983 21.8731C8.22422 20.7207 9.10438 19.2623 10.1782 17.7665C10.2914 17.6088 10.2553 17.3891 10.0976 17.2758C9.93985 17.1626 9.72011 17.1986 9.60684 17.3564C9.45474 17.5683 9.30678 17.7794 9.16261 17.9894H8.47294C8.2787 17.9894 8.12131 18.1468 8.12131 18.341C8.12131 18.5352 8.2787 18.6926 8.47294 18.6926H8.69199C8.06177 19.6599 7.53428 20.5796 7.15555 21.3762H3.34045C3.26005 21.3762 3.19469 21.311 3.19469 21.2308V3.34036C3.19469 3.26023 3.26009 3.19502 3.34045 3.19502H4.44785C4.64209 3.19502 4.79948 3.03763 4.79948 2.84339C4.79948 2.64915 4.64209 2.49176 4.44785 2.49176H3.34045C2.87232 2.49176 2.49143 2.87241 2.49143 3.34036V21.2308C2.49143 21.6988 2.87232 22.0795 3.34045 22.0795H6.84691C6.73378 22.3632 6.64433 22.626 6.57888 22.8679H2.59467C2.10318 22.8679 1.70326 22.4681 1.70326 21.9765V20.0726C1.70326 19.8784 1.54587 19.721 1.35163 19.721C1.15739 19.721 1 19.8784 1 20.0726V21.9765C1 22.8559 1.71536 23.5712 2.59467 23.5712H6.45098C6.41473 24.0591 6.52168 24.4254 6.77223 24.6759C6.98836 24.8921 7.29751 25 7.69856 25C8.54186 24.9999 9.79142 24.5222 11.4338 23.5712H16.0364C16.9157 23.5712 17.631 22.8558 17.631 21.9765V18.9137C17.6333 18.9114 17.6357 18.9091 17.6379 18.9068C18.2478 18.2969 18.3842 17.6048 18.0439 16.8495C18.3723 16.7315 18.682 16.5625 18.9544 16.3491C19.162 16.1868 19.2708 15.9327 19.2457 15.6695ZM11.3718 4.14203C11.3718 4.22229 11.3065 4.28756 11.2263 4.28756H7.40469C7.32443 4.28756 7.25916 4.22225 7.25916 4.14203V3.19488H11.3719L11.3718 4.14203ZM15.4361 20.8301V21.2308C15.4361 21.311 15.3709 21.3762 15.2908 21.3762H14.7254C14.9668 21.1953 15.2043 21.0128 15.4361 20.8301ZM16.9277 21.9765C16.9277 22.468 16.5279 22.8679 16.0363 22.8679H12.5832C12.9722 22.6177 13.3654 22.3531 13.7555 22.0795H15.2908C15.7587 22.0795 16.1394 21.6988 16.1394 21.2308V20.2605C16.4161 20.0299 16.6803 19.8016 16.9277 19.5786V21.9765ZM18.5209 15.7955C18.2238 16.0282 17.919 16.1585 17.6757 16.2316C17.3628 15.8008 16.947 15.3716 16.5118 14.9363C16.0766 14.5012 15.6473 14.0854 15.2166 13.7725C15.2901 13.5278 15.4206 13.2237 15.6526 12.9272C15.6673 12.9085 15.6873 12.9004 15.7118 12.9026C15.7301 12.9043 15.7551 12.9125 15.77 12.9417L15.9863 13.3639C16.0341 13.4571 16.1214 13.5238 16.2236 13.5465C16.3259 13.569 16.4335 13.5447 16.5161 13.4803C16.5242 13.4741 17.3328 12.8561 18.4563 12.93C18.4889 12.9321 18.516 12.9593 18.5181 12.9918C18.5918 14.1156 17.9741 14.924 17.9687 14.9309C17.9034 15.0135 17.8786 15.1209 17.901 15.2237C17.9234 15.3265 17.9906 15.4139 18.0842 15.4619L18.5063 15.6781C18.5356 15.6931 18.5438 15.7181 18.5456 15.7364C18.548 15.7609 18.5397 15.7809 18.5209 15.7955Z"/>
</mask>
<path d="M19.2457 15.6695C19.2203 15.4043 19.0639 15.1736 18.8271 15.0522L18.7482 15.0118C18.9748 14.6016 19.2802 13.8647 19.2199 12.9458C19.1948 12.5619 18.8863 12.2533 18.5023 12.2282C18.1886 12.2078 17.8966 12.2306 17.6309 12.2776V2.59467C17.631 1.71536 16.9156 1 16.0364 1H2.59462C1.71531 1 1 1.71536 1 2.59467V18.5334C1 18.7276 1.15739 18.885 1.35163 18.885C1.54587 18.885 1.70326 18.7276 1.70326 18.5334V2.59467C1.70326 2.10314 2.10314 1.70326 2.59462 1.70326H16.0363C16.5278 1.70326 16.9277 2.10314 16.9277 2.59467V12.4724C16.7336 12.5466 16.5679 12.6272 16.4363 12.7L16.3959 12.621C16.3349 12.502 16.2462 12.4032 16.1394 12.3313V3.3405C16.1394 2.87246 15.7586 2.49166 15.2906 2.49166H5.98706C5.79282 2.49166 5.63543 2.64905 5.63543 2.84329C5.63543 3.03753 5.79282 3.19492 5.98706 3.19492H6.5559V4.14203C6.5559 4.61003 6.93669 4.99082 7.40469 4.99082H11.2263C11.6943 4.99082 12.0751 4.61003 12.0751 4.14203V3.19488H15.2905C15.3708 3.19488 15.4361 3.26023 15.4361 3.34045V12.2472C15.3052 12.2957 15.1881 12.3796 15.0989 12.4936C14.8537 12.8068 14.6976 13.1263 14.5979 13.404C13.8429 13.0641 13.151 13.2005 12.5413 13.8102C12.2777 14.0738 11.9967 14.3748 11.7046 14.7057H8.4729C8.27866 14.7057 8.12127 14.8631 8.12127 15.0573C8.12127 15.2516 8.27866 15.409 8.4729 15.409H11.1049C10.9225 15.6297 10.7378 15.8592 10.5519 16.0963C10.4321 16.2492 10.4589 16.4702 10.6117 16.59C10.7646 16.7098 10.9856 16.683 11.1054 16.5301C11.2839 16.3023 11.4612 16.0819 11.6361 15.87C12.0279 16.2841 12.6916 16.9796 13.2879 17.576C13.3566 17.6447 13.4465 17.679 13.5366 17.679C13.6265 17.679 13.7166 17.6447 13.7852 17.576C13.9226 17.4387 13.9226 17.2161 13.7852 17.0788C13.1663 16.4598 12.4729 15.7316 12.0931 15.3297C12.4252 14.947 12.7436 14.6025 13.0386 14.3076C13.8348 13.5112 14.5681 13.9874 16.0144 15.4337C17.4609 16.8801 17.937 17.6133 17.1406 18.4096C15.9011 19.6492 13.9043 21.1989 12.0332 22.3849L11.3648 21.7165C11.2274 21.5792 11.0048 21.5792 10.8675 21.7165C10.7302 21.8538 10.7302 22.0764 10.8675 22.2138L11.4179 22.7642C10.3613 23.3968 9.42057 23.8586 8.69321 24.1006C7.67596 24.4391 7.35865 24.268 7.26948 24.1787C7.16966 24.079 6.9058 23.6178 7.69983 21.8731C8.22422 20.7207 9.10438 19.2623 10.1782 17.7665C10.2914 17.6088 10.2553 17.3891 10.0976 17.2758C9.93985 17.1626 9.72011 17.1986 9.60684 17.3564C9.45474 17.5683 9.30678 17.7794 9.16261 17.9894H8.47294C8.2787 17.9894 8.12131 18.1468 8.12131 18.341C8.12131 18.5352 8.2787 18.6926 8.47294 18.6926H8.69199C8.06177 19.6599 7.53428 20.5796 7.15555 21.3762H3.34045C3.26005 21.3762 3.19469 21.311 3.19469 21.2308V3.34036C3.19469 3.26023 3.26009 3.19502 3.34045 3.19502H4.44785C4.64209 3.19502 4.79948 3.03763 4.79948 2.84339C4.79948 2.64915 4.64209 2.49176 4.44785 2.49176H3.34045C2.87232 2.49176 2.49143 2.87241 2.49143 3.34036V21.2308C2.49143 21.6988 2.87232 22.0795 3.34045 22.0795H6.84691C6.73378 22.3632 6.64433 22.626 6.57888 22.8679H2.59467C2.10318 22.8679 1.70326 22.4681 1.70326 21.9765V20.0726C1.70326 19.8784 1.54587 19.721 1.35163 19.721C1.15739 19.721 1 19.8784 1 20.0726V21.9765C1 22.8559 1.71536 23.5712 2.59467 23.5712H6.45098C6.41473 24.0591 6.52168 24.4254 6.77223 24.6759C6.98836 24.8921 7.29751 25 7.69856 25C8.54186 24.9999 9.79142 24.5222 11.4338 23.5712H16.0364C16.9157 23.5712 17.631 22.8558 17.631 21.9765V18.9137C17.6333 18.9114 17.6357 18.9091 17.6379 18.9068C18.2478 18.2969 18.3842 17.6048 18.0439 16.8495C18.3723 16.7315 18.682 16.5625 18.9544 16.3491C19.162 16.1868 19.2708 15.9327 19.2457 15.6695ZM11.3718 4.14203C11.3718 4.22229 11.3065 4.28756 11.2263 4.28756H7.40469C7.32443 4.28756 7.25916 4.22225 7.25916 4.14203V3.19488H11.3719L11.3718 4.14203ZM15.4361 20.8301V21.2308C15.4361 21.311 15.3709 21.3762 15.2908 21.3762H14.7254C14.9668 21.1953 15.2043 21.0128 15.4361 20.8301ZM16.9277 21.9765C16.9277 22.468 16.5279 22.8679 16.0363 22.8679H12.5832C12.9722 22.6177 13.3654 22.3531 13.7555 22.0795H15.2908C15.7587 22.0795 16.1394 21.6988 16.1394 21.2308V20.2605C16.4161 20.0299 16.6803 19.8016 16.9277 19.5786V21.9765ZM18.5209 15.7955C18.2238 16.0282 17.919 16.1585 17.6757 16.2316C17.3628 15.8008 16.947 15.3716 16.5118 14.9363C16.0766 14.5012 15.6473 14.0854 15.2166 13.7725C15.2901 13.5278 15.4206 13.2237 15.6526 12.9272C15.6673 12.9085 15.6873 12.9004 15.7118 12.9026C15.7301 12.9043 15.7551 12.9125 15.77 12.9417L15.9863 13.3639C16.0341 13.4571 16.1214 13.5238 16.2236 13.5465C16.3259 13.569 16.4335 13.5447 16.5161 13.4803C16.5242 13.4741 17.3328 12.8561 18.4563 12.93C18.4889 12.9321 18.516 12.9593 18.5181 12.9918C18.5918 14.1156 17.9741 14.924 17.9687 14.9309C17.9034 15.0135 17.8786 15.1209 17.901 15.2237C17.9234 15.3265 17.9906 15.4139 18.0842 15.4619L18.5063 15.6781C18.5356 15.6931 18.5438 15.7181 18.5456 15.7364C18.548 15.7609 18.5397 15.7809 18.5209 15.7955Z" fill="white"/>
<path d="M19.2457 15.6695C19.2203 15.4043 19.0639 15.1736 18.8271 15.0522L18.7482 15.0118C18.9748 14.6016 19.2802 13.8647 19.2199 12.9458C19.1948 12.5619 18.8863 12.2533 18.5023 12.2282C18.1886 12.2078 17.8966 12.2306 17.6309 12.2776V2.59467C17.631 1.71536 16.9156 1 16.0364 1H2.59462C1.71531 1 1 1.71536 1 2.59467V18.5334C1 18.7276 1.15739 18.885 1.35163 18.885C1.54587 18.885 1.70326 18.7276 1.70326 18.5334V2.59467C1.70326 2.10314 2.10314 1.70326 2.59462 1.70326H16.0363C16.5278 1.70326 16.9277 2.10314 16.9277 2.59467V12.4724C16.7336 12.5466 16.5679 12.6272 16.4363 12.7L16.3959 12.621C16.3349 12.502 16.2462 12.4032 16.1394 12.3313V3.3405C16.1394 2.87246 15.7586 2.49166 15.2906 2.49166H5.98706C5.79282 2.49166 5.63543 2.64905 5.63543 2.84329C5.63543 3.03753 5.79282 3.19492 5.98706 3.19492H6.5559V4.14203C6.5559 4.61003 6.93669 4.99082 7.40469 4.99082H11.2263C11.6943 4.99082 12.0751 4.61003 12.0751 4.14203V3.19488H15.2905C15.3708 3.19488 15.4361 3.26023 15.4361 3.34045V12.2472C15.3052 12.2957 15.1881 12.3796 15.0989 12.4936C14.8537 12.8068 14.6976 13.1263 14.5979 13.404C13.8429 13.0641 13.151 13.2005 12.5413 13.8102C12.2777 14.0738 11.9967 14.3748 11.7046 14.7057H8.4729C8.27866 14.7057 8.12127 14.8631 8.12127 15.0573C8.12127 15.2516 8.27866 15.409 8.4729 15.409H11.1049C10.9225 15.6297 10.7378 15.8592 10.5519 16.0963C10.4321 16.2492 10.4589 16.4702 10.6117 16.59C10.7646 16.7098 10.9856 16.683 11.1054 16.5301C11.2839 16.3023 11.4612 16.0819 11.6361 15.87C12.0279 16.2841 12.6916 16.9796 13.2879 17.576C13.3566 17.6447 13.4465 17.679 13.5366 17.679C13.6265 17.679 13.7166 17.6447 13.7852 17.576C13.9226 17.4387 13.9226 17.2161 13.7852 17.0788C13.1663 16.4598 12.4729 15.7316 12.0931 15.3297C12.4252 14.947 12.7436 14.6025 13.0386 14.3076C13.8348 13.5112 14.5681 13.9874 16.0144 15.4337C17.4609 16.8801 17.937 17.6133 17.1406 18.4096C15.9011 19.6492 13.9043 21.1989 12.0332 22.3849L11.3648 21.7165C11.2274 21.5792 11.0048 21.5792 10.8675 21.7165C10.7302 21.8538 10.7302 22.0764 10.8675 22.2138L11.4179 22.7642C10.3613 23.3968 9.42057 23.8586 8.69321 24.1006C7.67596 24.4391 7.35865 24.268 7.26948 24.1787C7.16966 24.079 6.9058 23.6178 7.69983 21.8731C8.22422 20.7207 9.10438 19.2623 10.1782 17.7665C10.2914 17.6088 10.2553 17.3891 10.0976 17.2758C9.93985 17.1626 9.72011 17.1986 9.60684 17.3564C9.45474 17.5683 9.30678 17.7794 9.16261 17.9894H8.47294C8.2787 17.9894 8.12131 18.1468 8.12131 18.341C8.12131 18.5352 8.2787 18.6926 8.47294 18.6926H8.69199C8.06177 19.6599 7.53428 20.5796 7.15555 21.3762H3.34045C3.26005 21.3762 3.19469 21.311 3.19469 21.2308V3.34036C3.19469 3.26023 3.26009 3.19502 3.34045 3.19502H4.44785C4.64209 3.19502 4.79948 3.03763 4.79948 2.84339C4.79948 2.64915 4.64209 2.49176 4.44785 2.49176H3.34045C2.87232 2.49176 2.49143 2.87241 2.49143 3.34036V21.2308C2.49143 21.6988 2.87232 22.0795 3.34045 22.0795H6.84691C6.73378 22.3632 6.64433 22.626 6.57888 22.8679H2.59467C2.10318 22.8679 1.70326 22.4681 1.70326 21.9765V20.0726C1.70326 19.8784 1.54587 19.721 1.35163 19.721C1.15739 19.721 1 19.8784 1 20.0726V21.9765C1 22.8559 1.71536 23.5712 2.59467 23.5712H6.45098C6.41473 24.0591 6.52168 24.4254 6.77223 24.6759C6.98836 24.8921 7.29751 25 7.69856 25C8.54186 24.9999 9.79142 24.5222 11.4338 23.5712H16.0364C16.9157 23.5712 17.631 22.8558 17.631 21.9765V18.9137C17.6333 18.9114 17.6357 18.9091 17.6379 18.9068C18.2478 18.2969 18.3842 17.6048 18.0439 16.8495C18.3723 16.7315 18.682 16.5625 18.9544 16.3491C19.162 16.1868 19.2708 15.9327 19.2457 15.6695ZM11.3718 4.14203C11.3718 4.22229 11.3065 4.28756 11.2263 4.28756H7.40469C7.32443 4.28756 7.25916 4.22225 7.25916 4.14203V3.19488H11.3719L11.3718 4.14203ZM15.4361 20.8301V21.2308C15.4361 21.311 15.3709 21.3762 15.2908 21.3762H14.7254C14.9668 21.1953 15.2043 21.0128 15.4361 20.8301ZM16.9277 21.9765C16.9277 22.468 16.5279 22.8679 16.0363 22.8679H12.5832C12.9722 22.6177 13.3654 22.3531 13.7555 22.0795H15.2908C15.7587 22.0795 16.1394 21.6988 16.1394 21.2308V20.2605C16.4161 20.0299 16.6803 19.8016 16.9277 19.5786V21.9765ZM18.5209 15.7955C18.2238 16.0282 17.919 16.1585 17.6757 16.2316C17.3628 15.8008 16.947 15.3716 16.5118 14.9363C16.0766 14.5012 15.6473 14.0854 15.2166 13.7725C15.2901 13.5278 15.4206 13.2237 15.6526 12.9272C15.6673 12.9085 15.6873 12.9004 15.7118 12.9026C15.7301 12.9043 15.7551 12.9125 15.77 12.9417L15.9863 13.3639C16.0341 13.4571 16.1214 13.5238 16.2236 13.5465C16.3259 13.569 16.4335 13.5447 16.5161 13.4803C16.5242 13.4741 17.3328 12.8561 18.4563 12.93C18.4889 12.9321 18.516 12.9593 18.5181 12.9918C18.5918 14.1156 17.9741 14.924 17.9687 14.9309C17.9034 15.0135 17.8786 15.1209 17.901 15.2237C17.9234 15.3265 17.9906 15.4139 18.0842 15.4619L18.5063 15.6781C18.5356 15.6931 18.5438 15.7181 18.5456 15.7364C18.548 15.7609 18.5397 15.7809 18.5209 15.7955Z" stroke="white" stroke-width="0.2" mask="url(#path-7-outside-1_737_61531)"/>
<path d="M14.0352 20.3861L14.0351 20.3862C13.9561 20.49 13.8363 20.5445 13.7153 20.5445C13.6305 20.5445 13.5449 20.5177 13.4723 20.4625M14.0352 20.3861L11.7271 18.72C11.765 18.7656 12.6788 19.8585 13.4723 20.4625M14.0352 20.3861C14.1695 20.2096 14.1354 19.9576 13.9588 19.8233C13.2406 19.2765 12.3561 18.2201 12.3441 18.2058L14.0352 20.3861ZM13.4723 20.4625L13.5026 20.4227L13.4723 20.4625C13.4723 20.4625 13.4723 20.4625 13.4723 20.4625Z" fill="white" stroke="white" stroke-width="0.1"/>
<path d="M16.3371 18.0893L16.3371 18.0893C16.494 17.9324 16.494 17.6781 16.3371 17.5213L15.8114 16.9956L15.8114 16.9956C15.6545 16.8388 15.4003 16.8388 15.2434 16.9956L15.2434 16.9956C15.0866 17.1525 15.0866 17.4067 15.2434 17.5636L15.7691 18.0893C15.8475 18.1677 15.9504 18.2069 16.0531 18.2069C16.1558 18.2069 16.2587 18.1677 16.3371 18.0893Z" fill="white" stroke="white" stroke-width="0.1"/>
<path d="M10.0779 20.1918L10.0779 20.1918L10.3753 20.4892L10.3753 20.4892C10.4537 20.5675 10.5566 20.6068 10.6593 20.6068C10.762 20.6068 10.8649 20.5675 10.9433 20.4892L10.9433 20.4891C11.1002 20.3323 11.1002 20.078 10.9433 19.9211L10.6459 19.6238L10.6459 19.6237C10.489 19.467 10.2348 19.467 10.0779 19.6237C9.92103 19.7806 9.92104 20.0349 10.0779 20.1918Z" fill="white" stroke="white" stroke-width="0.1"/>
<path d="M9.04628 21.7038L9.04628 21.7038L9.76051 22.418C9.76051 22.418 9.76051 22.418 9.76052 22.418C9.91742 22.5748 9.91741 22.8291 9.76056 22.986C9.68212 23.0644 9.57922 23.1036 9.47654 23.1036C9.37386 23.1036 9.27095 23.0644 9.19256 22.986C9.19256 22.986 9.19256 22.986 9.19255 22.986L8.47833 22.2719L8.47832 22.2719L8.51368 22.2365C8.37631 22.0992 8.37631 21.8766 8.51363 21.7392L9.04628 21.7038ZM9.04628 21.7038C8.88944 21.5471 8.63513 21.547 8.47828 21.7039L9.04628 21.7038Z" fill="white" stroke="white" stroke-width="0.1"/>
</svg>
