<svg width="23" height="24" viewBox="0 0 23 24" fill="none" xmlns="http://www.w3.org/2000/svg">
<path d="M19.1533 11.3057C19.1533 10.8304 18.8364 10.411 18.3797 10.2618L17.1308 9.917C17.0189 9.64671 16.935 9.4603 16.8325 9.18069L17.4663 8.07157C17.7179 7.64284 17.6434 7.09294 17.2799 6.75741L16.2733 5.76013C15.9191 5.40596 15.3692 5.3314 14.9591 5.58305L13.8593 6.20751C13.589 6.09566 13.3933 6.01178 13.1137 5.89994L12.7782 4.67897L12.7688 4.66033C12.629 4.20364 12.2003 3.88675 11.725 3.88675H10.2803C9.77702 3.88675 9.34828 4.21296 9.23644 4.68829L8.91023 5.91858C8.63994 6.03042 8.45353 6.1143 8.18324 6.21683L7.07412 5.58305C6.64539 5.3314 6.09549 5.40596 5.75996 5.76945L4.74404 6.77605C4.38987 7.13022 4.31531 7.6708 4.56696 8.09021L5.19142 9.19001C5.07958 9.4603 4.99569 9.65603 4.88385 9.93564L3.66289 10.2712L3.64425 10.2805C3.18755 10.4203 2.87066 10.849 2.87066 11.3244V12.769C2.87066 13.2723 3.19687 13.701 3.67221 13.8129L4.89317 14.1484C5.00501 14.4094 5.0889 14.6051 5.19142 14.8754L4.55764 15.9938C4.30599 16.4226 4.38987 16.9725 4.74404 17.308L5.75064 18.3146C6.10481 18.6688 6.64539 18.7433 7.0648 18.4917L8.1646 17.8672C8.43489 17.9791 8.63062 18.063 8.91023 18.1748L9.24576 19.3958V19.4144C9.38556 19.8711 9.8143 20.1973 10.2896 20.1973H11.7343C12.2376 20.1973 12.6663 19.8711 12.7782 19.3958L13.1137 18.1748C13.384 18.063 13.5704 17.9791 13.85 17.8766L14.9684 18.5103C15.3972 18.762 15.9471 18.6781 16.2826 18.3239L17.2892 17.3173C17.6434 16.9632 17.7086 16.4133 17.457 16.0032L16.8325 14.9034C16.9443 14.6331 17.0282 14.4374 17.1401 14.1577L18.361 13.8222H18.3797C18.8364 13.6824 19.1626 13.2537 19.1626 12.7783V11.3057H19.1533ZM17.9416 12.6572L16.2267 13.1232L16.1148 13.4121C15.9191 13.9154 15.8352 14.1298 15.6302 14.5958L15.4811 14.95L16.3572 16.4878L15.4717 17.3733L13.9432 16.4971L13.6729 16.5997C13.1417 16.8047 12.918 16.8979 12.424 17.1123L12.0978 17.2521L11.6318 18.9484H10.3735L9.9075 17.2334L9.61857 17.1216C9.11528 16.9259 8.90091 16.842 8.43489 16.6369L8.0714 16.4878L6.53355 17.3639L5.64812 16.4785L6.52423 14.95L6.4217 14.6797C6.21666 14.1484 6.12345 13.9154 5.90908 13.4121L5.7786 13.0952L4.0823 12.6292V11.371L5.79724 10.905L5.90908 10.616C6.10481 10.1127 6.18869 9.89836 6.39374 9.42302L6.54287 9.06885L5.66676 7.56827L6.55219 6.68284L8.08072 7.54963L8.35101 7.44711C8.90091 7.24206 9.13392 7.13954 9.64653 6.91585L9.92614 6.79469L10.3922 5.09839H11.6504L12.1164 6.81333L12.4053 6.92517C12.9086 7.1209 13.123 7.2141 13.5984 7.40983L13.9525 7.55895L15.4904 6.68284L16.3665 7.56827L15.4997 9.09681L15.6022 9.3671C15.8073 9.90768 15.9098 10.1407 16.1242 10.6533L16.2453 10.9422L17.9416 11.4082V12.6572ZM22.0332 12.0327C22.0332 14.2696 21.3622 16.4226 20.1039 18.2587C19.9828 18.4265 19.7964 18.5197 19.6006 18.5197C19.4795 18.5197 19.3676 18.4824 19.2558 18.4171C18.9762 18.2307 18.9109 17.8486 19.0973 17.5783C20.2158 15.9379 20.8123 14.0273 20.8123 12.0327C20.8123 6.62692 16.4131 2.22773 11.0073 2.22773C9.38556 2.22773 7.81043 2.61918 6.40306 3.37413L8.1646 3.78422C8.49081 3.85879 8.69586 4.185 8.61198 4.51121C8.54674 4.79082 8.29509 4.97722 8.0248 4.97722C7.9782 4.97722 7.93159 4.9679 7.88499 4.95858L4.25007 4.10111L5.10754 0.466189C5.1821 0.139978 5.50831 -0.0650694 5.83452 0.0188135C6.16073 0.093376 6.36578 0.419587 6.2819 0.745799L5.93705 2.25569C7.49354 1.44482 9.22712 1.01609 11.0166 1.01609C17.0935 1.01609 22.0332 5.95586 22.0332 12.0327ZM14.3347 19.0416L17.9696 19.8991L17.1121 23.534C17.0469 23.8136 16.7952 24 16.5249 24C16.4783 24 16.4317 23.9907 16.3851 23.9814C16.0589 23.9068 15.8539 23.5806 15.9378 23.2544L16.3012 21.6979C14.6888 22.5833 12.8807 23.0493 11.0166 23.0493C4.93977 23.0493 0 18.1096 0 12.0327C0 9.81447 0.661743 7.6708 1.90135 5.84402C2.08775 5.56441 2.46989 5.49916 2.74017 5.68557C3.01978 5.87198 3.08503 6.25411 2.89862 6.5244C1.7895 8.14613 1.20232 10.0568 1.20232 12.0327C1.20232 17.4385 5.60151 21.8377 11.0073 21.8377C12.6756 21.8377 14.2974 21.4183 15.742 20.6167L14.0457 20.216C13.7195 20.1414 13.5145 19.8152 13.5984 19.489C13.6822 19.1628 14.0084 18.967 14.3347 19.0416Z" fill="white"/>
</svg>
