<svg width="25" height="24" viewBox="0 0 25 24" fill="none" xmlns="http://www.w3.org/2000/svg">
<path d="M22.6887 8.33652L24.8654 5.83234C24.9787 5.70148 25.0239 5.52535 24.9878 5.3564C24.9512 5.18745 24.8374 5.045 24.6803 4.97185L14.0721 0.0518232C13.7953 -0.0762707 13.465 0.042161 13.3354 0.318502C13.3012 0.391659 13.2851 0.468128 13.2846 0.544046C13.284 0.547083 13.2838 0.548463 13.2838 0.5515V9.0968L12.4941 9.88165L11.7174 9.10978C11.7174 9.10978 11.716 0.525274 11.716 0.51782C11.7149 0.506778 11.6919 0.373438 11.6661 0.318226C11.5367 0.042161 11.2061 -0.0765468 10.9291 0.0515472L0.320061 4.97405C0.1624 5.04721 0.0485956 5.18938 0.0122338 5.35834C-0.0241281 5.52756 0.0216712 5.70369 0.13492 5.83455L2.31441 8.34094L0.0791285 12.2354C0.00473934 12.3649 -0.0133028 12.5189 0.0283329 12.6622C0.0696911 12.8055 0.168229 12.9258 0.300908 12.9957L2.4235 14.1162V18.3143C2.4235 18.5183 2.53675 18.7055 2.718 18.8013L12.2343 23.8246C12.3153 23.8676 12.4044 23.8889 12.4941 23.8889C12.5832 23.8889 12.6725 23.8676 12.7542 23.8246L22.2704 18.801C22.4514 18.7052 22.5649 18.5183 22.5649 18.314V14.114L24.6992 12.9871C24.8318 12.9175 24.9301 12.7972 24.9717 12.6539C25.0134 12.5103 24.9951 12.3566 24.9207 12.2268L22.6887 8.33652ZM10.6091 1.41696V8.0069L9.88018 7.28195C9.66423 7.06662 9.31282 7.0669 9.09604 7.28223C8.87981 7.49728 8.87981 7.8465 9.09632 8.06211L12.1024 11.0513C12.2101 11.159 12.3525 11.2126 12.4943 11.2126C12.6362 11.2126 12.7777 11.1587 12.8863 11.0513L15.8924 8.06211C16.1089 7.84678 16.1089 7.49784 15.8924 7.28223C15.6759 7.06662 15.3247 7.06717 15.1088 7.28195L14.3927 7.9942V1.41696L23.5464 5.66311L21.8729 7.58894L15.7403 4.66376C15.4635 4.53152 15.1329 4.64802 15.0003 4.92243C14.8676 5.19711 14.9842 5.52646 15.2606 5.65814L20.7874 8.29456L12.4916 12.7356L4.1994 8.29566L9.57124 5.73406C9.84743 5.60238 9.96401 5.27303 9.83133 4.99835C9.69893 4.72394 9.36861 4.60744 9.0916 4.73967L3.12381 7.58562L1.45366 5.66504L10.6091 1.41696ZM3.20431 9.01536L11.7405 13.5856L9.86574 16.7965L1.32598 12.2881L3.20431 9.01536ZM3.5324 14.7012L9.81745 18.0195C9.90016 18.0634 9.98926 18.0841 10.077 18.0841C10.2685 18.0841 10.4545 17.9852 10.5569 17.8094L11.94 15.4405V22.4205L3.5324 17.9825V14.7012ZM21.4563 17.9825L13.0487 22.4205V15.409L14.444 17.8C14.5464 17.9756 14.7321 18.0744 14.9239 18.0744C15.0114 18.0744 15.1002 18.0537 15.1835 18.0101L21.4563 14.699V17.9825ZM15.1349 16.7871L13.261 13.5762L21.796 9.00708L23.6747 12.2795L15.1349 16.7871Z" fill="white"/>
<path d="M14.4964 19.9865C14.5886 20.1908 14.7909 20.3123 15.0022 20.3123C15.0785 20.3123 15.1554 20.2965 15.2289 20.2637L17.6624 19.1771C17.9419 19.0523 18.0666 18.726 17.9414 18.448C17.8162 18.1703 17.487 18.0472 17.208 18.1708L14.7746 19.2574C14.4959 19.3825 14.3712 19.7085 14.4964 19.9865Z" fill="white"/>
</svg>
