<svg width="20" height="20" viewBox="0 0 20 20" fill="none" xmlns="http://www.w3.org/2000/svg">
<path d="M2.92974 14.1406H3.07978C2.33373 12.9523 2.24658 10.9901 3.13416 10.0817V10.0818C3.67478 9.52842 4.37962 9.3621 5.1245 9.60944C5.18575 9.06452 5.38821 8.34019 5.98524 7.8071C6.22665 7.59156 6.59696 7.61249 6.81254 7.8539C7.02809 8.0953 7.00711 8.46569 6.76575 8.6812C6.48321 8.9335 6.35934 9.29085 6.30727 9.59913C7.04039 9.36686 7.73277 9.53628 8.26574 10.0817C9.15343 10.9902 9.06601 12.9527 8.32023 14.1406H11.6801C10.9336 12.9509 10.8473 10.9896 11.7344 10.0817C12.2751 9.52839 12.9799 9.36198 13.7247 9.6094C13.786 9.06448 13.9885 8.34019 14.5855 7.8071C14.8269 7.59156 15.1972 7.61257 15.4128 7.8539C15.6283 8.0953 15.6074 8.46569 15.366 8.6812C15.0834 8.93347 14.9595 9.29085 14.9074 9.59913C15.6405 9.36682 16.333 9.53628 16.8659 10.0817C17.7536 10.9902 17.6662 12.9528 16.9204 14.1406H17.0703C18.6857 14.1406 20 15.4549 20 17.0703C20 18.6857 18.6857 20 17.0703 20H2.92974C1.31432 20 6.67572e-05 18.6857 6.67572e-05 17.0703C6.67572e-05 15.4549 1.31432 14.1406 2.92974 14.1406ZM7.42754 10.9007C7.21411 10.6823 6.96973 10.6037 6.61376 10.7322C6.03899 10.9395 5.38837 10.9495 4.78611 10.7322C4.36083 10.5787 4.12779 10.7417 3.97232 10.9007V10.9008C3.56841 11.3141 3.53857 12.6483 4.06033 13.499C4.41478 14.0769 4.89372 14.2618 5.52485 14.0643C5.63884 14.0286 5.76099 14.0286 5.87497 14.0643C6.50598 14.2618 6.98504 14.0769 7.33953 13.499C7.86129 12.6483 7.83141 11.3141 7.42754 10.9007ZM16.0277 10.9007C15.8143 10.6823 15.5699 10.6037 15.214 10.7322C14.6442 10.9376 13.9933 10.9511 13.3864 10.7322C12.961 10.5787 12.728 10.7417 12.5726 10.9008C12.1687 11.3141 12.1388 12.6483 12.6606 13.499C13.0151 14.0769 13.4941 14.2618 14.1251 14.0643C14.2391 14.0286 14.3612 14.0286 14.4752 14.0643C15.1062 14.2617 15.5853 14.0769 15.9398 13.499C16.4615 12.6483 16.4317 11.3141 16.0277 10.9007ZM2.92974 18.8281H17.0703C18.0396 18.8281 18.8281 18.0395 18.8281 17.0703C18.8281 16.101 18.0396 15.3125 17.0703 15.3125H2.92974C1.96049 15.3125 1.17194 16.101 1.17194 17.0703C1.17194 18.0395 1.96049 18.8281 2.92974 18.8281Z" fill="white"/>
<path d="M17.0313 17.6565C16.7076 17.6565 16.4453 17.3942 16.4453 17.0706C16.4453 16.747 16.7076 16.4846 17.0313 16.4846C17.3549 16.4846 17.6172 16.747 17.6172 17.0706C17.6172 17.3942 17.3549 17.6565 17.0313 17.6565Z" fill="white"/>
<path d="M14.6875 17.6565C14.3639 17.6565 14.1016 17.3942 14.1016 17.0706C14.1016 16.747 14.3639 16.4846 14.6875 16.4846C15.0111 16.4846 15.2734 16.747 15.2734 17.0706C15.2734 17.3942 15.0111 17.6565 14.6875 17.6565Z" fill="white"/>
<path d="M12.3438 17.6565C12.0201 17.6565 11.7578 17.3942 11.7578 17.0706C11.7578 16.747 12.0201 16.4846 12.3438 16.4846C12.6674 16.4846 12.9297 16.747 12.9297 17.0706C12.9297 17.3942 12.6674 17.6565 12.3438 17.6565Z" fill="white"/>
<path d="M10 17.6565C9.6764 17.6565 9.41407 17.3942 9.41407 17.0706C9.41407 16.747 9.6764 16.4846 10 16.4846C10.3236 16.4846 10.5859 16.747 10.5859 17.0706C10.5859 17.3942 10.3236 17.6565 10 17.6565Z" fill="white"/>
<path d="M7.65625 17.6565C7.33265 17.6565 7.07032 17.3942 7.07032 17.0706C7.07032 16.747 7.33265 16.4846 7.65625 16.4846C7.97986 16.4846 8.24219 16.747 8.24219 17.0706C8.24219 17.3942 7.97986 17.6565 7.65625 17.6565Z" fill="white"/>
<path d="M5.3125 17.6565C4.9889 17.6565 4.72657 17.3942 4.72657 17.0706C4.72657 16.747 4.9889 16.4846 5.3125 16.4846C5.63611 16.4846 5.89844 16.747 5.89844 17.0706C5.89844 17.3942 5.63611 17.6565 5.3125 17.6565Z" fill="white"/>
<path d="M2.96875 17.6565C2.64515 17.6565 2.38282 17.3942 2.38282 17.0706C2.38282 16.747 2.64515 16.4846 2.96875 16.4846C3.29236 16.4846 3.55469 16.747 3.55469 17.0706C3.55469 17.3942 3.29236 17.6565 2.96875 17.6565Z" fill="white"/>
<path d="M19.4141 2.34399H15.9572C15.7803 2.84258 15.3847 3.23824 14.8861 3.41508V4.06961L18.17 5.88292C18.3567 5.98605 18.4727 6.18253 18.4727 6.39585V8.6399C18.4727 8.9635 18.2103 9.22584 17.8867 9.22584C17.5631 9.22584 17.3008 8.9635 17.3008 8.6399V6.74163L14.3001 5.08468L11.2995 6.74163V8.6399C11.2995 8.9635 11.0372 9.22584 10.7136 9.22584C10.39 9.22584 10.1277 8.9635 10.1277 8.6399V6.39585C10.1277 6.18253 10.2436 5.98605 10.4303 5.88292L13.7142 4.06957V3.41508C13.2156 3.23824 12.8199 2.84258 12.6431 2.34399H0.586002C0.26241 2.34399 6.67572e-05 2.08164 6.67572e-05 1.75805C6.67572e-05 1.43446 0.26241 1.17212 0.586002 1.17212H12.6431C12.885 0.490125 13.5363 0.000244141 14.3002 0.000244141C15.064 0.000244141 15.7153 0.490125 15.9572 1.17212H19.4141C19.7377 1.17212 20 1.43446 20 1.75805C20 2.08164 19.7377 2.34399 19.4141 2.34399ZM14.3001 1.17212C13.9771 1.17212 13.7142 1.43497 13.7142 1.75805C13.7142 2.08114 13.9771 2.34399 14.3001 2.34399C14.6232 2.34399 14.8861 2.08114 14.8861 1.75805C14.8861 1.43497 14.6232 1.17212 14.3001 1.17212Z" fill="white"/>
</svg>
