<svg width="24" height="24" viewBox="0 0 24 24" fill="none" xmlns="http://www.w3.org/2000/svg">
<path d="M3 14C3 13.0572 3 12.5858 3.29289 12.2929C3.58579 12 4.05719 12 5 12C5.94281 12 6.41421 12 6.70711 12.2929C7 12.5858 7 13.0572 7 14V20C7 20.9428 7 21.4142 6.70711 21.7071C6.41421 22 5.94281 22 5 22C4.05719 22 3.58579 22 3.29289 21.7071C3 21.4142 3 20.9428 3 20V14Z" stroke="white" stroke-width="1.5"/>
<path d="M10 10C10 9.05719 10 8.58579 10.2929 8.29289C10.5858 8 11.0572 8 12 8C12.9428 8 13.4142 8 13.7071 8.29289C14 8.58579 14 9.05719 14 10V20C14 20.9428 14 21.4142 13.7071 21.7071C13.4142 22 12.9428 22 12 22C11.0572 22 10.5858 22 10.2929 21.7071C10 21.4142 10 20.9428 10 20V10Z" stroke="white" stroke-width="1.5"/>
<path d="M17 7C17 6.05719 17 5.58579 17.2929 5.29289C17.5858 5 18.0572 5 19 5C19.9428 5 20.4142 5 20.7071 5.29289C21 5.58579 21 6.05719 21 7V20C21 20.9428 21 21.4142 20.7071 21.7071C20.4142 22 19.9428 22 19 22C18.0572 22 17.5858 22 17.2929 21.7071C17 21.4142 17 20.9428 17 20V7Z" stroke="white" stroke-width="1.5"/>
<path d="M16 1L11.2032 5.00073C10.5547 5.54159 10.2305 5.81203 9.82832 5.81199C9.42614 5.81195 9.10197 5.54145 8.45363 5.00046L8.29806 4.87064C7.64915 4.32918 7.3247 4.05844 6.92224 4.05856C6.51979 4.05869 6.19557 4.32962 5.54713 4.87149L3 7M16 1V4.025M16 1H12.3716" stroke="white" stroke-width="1.2" stroke-linecap="round" stroke-linejoin="round"/>
</svg>
