<svg width="20" height="20" viewBox="0 0 20 20" fill="none" xmlns="http://www.w3.org/2000/svg">
<path d="M18.3333 9.99984C18.3333 14.6022 14.6024 18.3332 10 18.3332C5.39763 18.3332 1.66667 14.6022 1.66667 9.99984C1.66667 5.39746 5.39763 1.6665 10 1.6665C14.6024 1.6665 18.3333 5.39746 18.3333 9.99984Z" fill="#019939"/>
<path d="M13.3586 7.47456C13.6027 7.71864 13.6027 8.11437 13.3586 8.35845L9.19194 12.5251C8.94786 12.7692 8.55213 12.7692 8.30805 12.5251L6.64139 10.8584C6.39731 10.6144 6.39731 10.2186 6.64139 9.97456C6.88546 9.73048 7.28119 9.73048 7.52527 9.97456L8.74999 11.1993L10.6124 9.33692L12.4747 7.47456C12.7188 7.23048 13.1145 7.23048 13.3586 7.47456Z" fill="white"/>
</svg>
