<svg width="17" height="16" viewBox="0 0 17 16" fill="none" xmlns="http://www.w3.org/2000/svg">
<path d="M12 9.33333C12.4208 9.33333 12.7619 8.99222 12.7619 8.57143C12.7619 8.15064 12.4208 7.80952 12 7.80952C11.5792 7.80952 11.2381 8.15064 11.2381 8.57143C11.2381 8.99222 11.5792 9.33333 12 9.33333Z" fill="#0A090B"/>
<path d="M12 12.381C12.4208 12.381 12.7619 12.0398 12.7619 11.619C12.7619 11.1983 12.4208 10.8571 12 10.8571C11.5792 10.8571 11.2381 11.1983 11.2381 11.619C11.2381 12.0398 11.5792 12.381 12 12.381Z" fill="#0A090B"/>
<path d="M8.95238 8.57143C8.95238 8.99222 8.61126 9.33333 8.19048 9.33333C7.76969 9.33333 7.42857 8.99222 7.42857 8.57143C7.42857 8.15064 7.76969 7.80952 8.19048 7.80952C8.61126 7.80952 8.95238 8.15064 8.95238 8.57143Z" fill="#0A090B"/>
<path d="M8.95238 11.619C8.95238 12.0398 8.61126 12.381 8.19048 12.381C7.76969 12.381 7.42857 12.0398 7.42857 11.619C7.42857 11.1983 7.76969 10.8571 8.19048 10.8571C8.61126 10.8571 8.95238 11.1983 8.95238 11.619Z" fill="#0A090B"/>
<path d="M4.38095 9.33333C4.80174 9.33333 5.14286 8.99222 5.14286 8.57143C5.14286 8.15064 4.80174 7.80952 4.38095 7.80952C3.96016 7.80952 3.61905 8.15064 3.61905 8.57143C3.61905 8.99222 3.96016 9.33333 4.38095 9.33333Z" fill="#0A090B"/>
<path d="M4.38095 12.381C4.80174 12.381 5.14286 12.0398 5.14286 11.619C5.14286 11.1983 4.80174 10.8571 4.38095 10.8571C3.96016 10.8571 3.61905 11.1983 3.61905 11.619C3.61905 12.0398 3.96016 12.381 4.38095 12.381Z" fill="#0A090B"/>
<path fill-rule="evenodd" clip-rule="evenodd" d="M4.38095 0C4.69654 0 4.95238 0.255837 4.95238 0.571429V1.15255C5.45676 1.14285 6.01244 1.14285 6.62359 1.14286H9.75727C10.3684 1.14285 10.9242 1.14285 11.4286 1.15255V0.571429C11.4286 0.255837 11.6844 0 12 0C12.3156 0 12.5714 0.255837 12.5714 0.571429V1.20159C12.7695 1.21669 12.957 1.23567 13.1345 1.25953C14.0278 1.37963 14.7508 1.63267 15.321 2.20285C15.8911 2.77303 16.1442 3.49604 16.2643 4.38932C16.381 5.25728 16.381 6.36633 16.381 7.76651V9.37631C16.381 10.7765 16.381 11.8856 16.2643 12.7535C16.1442 13.6468 15.8911 14.3698 15.321 14.94C14.7508 15.5102 14.0278 15.7632 13.1345 15.8833C12.2665 16 11.1575 16 9.7573 16H6.62369C5.2235 16 4.11443 16 3.24646 15.8833C2.35319 15.7632 1.63018 15.5102 1.06 14.94C0.489814 14.3698 0.236772 13.6468 0.116674 12.7535C-2.11969e-05 11.8856 -1.17468e-05 10.7765 2.42254e-07 9.37632V7.76654C-1.17468e-05 6.36634 -2.11969e-05 5.25729 0.116674 4.38932C0.236772 3.49604 0.489814 2.77303 1.06 2.20285C1.63018 1.63267 2.35319 1.37963 3.24646 1.25953C3.42393 1.23567 3.61147 1.21669 3.80952 1.20159V0.571429C3.80952 0.255837 4.06536 0 4.38095 0ZM3.39874 2.3922C2.6322 2.49526 2.19056 2.68853 1.86812 3.01097C1.54567 3.33342 1.3524 3.77505 1.24934 4.5416C1.23189 4.67142 1.21729 4.80808 1.20509 4.95238H15.1759C15.1637 4.80808 15.1491 4.67142 15.1316 4.5416C15.0286 3.77505 14.8353 3.33342 14.5128 3.01097C14.1904 2.68853 13.7488 2.49526 12.9822 2.3922C12.1992 2.28693 11.1671 2.28571 9.71429 2.28571H6.66667C5.21385 2.28571 4.18173 2.28693 3.39874 2.3922ZM1.14286 7.80952C1.14286 7.15885 1.1431 6.59256 1.15283 6.09524H15.2281C15.2379 6.59256 15.2381 7.15885 15.2381 7.80952V9.33333C15.2381 10.7861 15.2369 11.8183 15.1316 12.6013C15.0286 13.3678 14.8353 13.8094 14.5128 14.1319C14.1904 14.4543 13.7488 14.6476 12.9822 14.7507C12.1992 14.8559 11.1671 14.8571 9.71429 14.8571H6.66667C5.21385 14.8571 4.18172 14.8559 3.39874 14.7507C2.6322 14.6476 2.19056 14.4543 1.86812 14.1319C1.54567 13.8094 1.3524 13.3678 1.24934 12.6013C1.14407 11.8183 1.14286 10.7861 1.14286 9.33333V7.80952Z" fill="#0A090B"/>
</svg>
