<svg width="20" height="20" viewBox="0 0 20 20" fill="none" xmlns="http://www.w3.org/2000/svg">
<path fill-rule="evenodd" clip-rule="evenodd" d="M18.9583 5.83337C18.9583 6.17855 18.6784 6.45837 18.3333 6.45837L1.66658 6.45837C1.32141 6.45837 1.04158 6.17855 1.04158 5.83337C1.04158 5.4882 1.32141 5.20837 1.66658 5.20837L18.3333 5.20837C18.6784 5.20837 18.9583 5.4882 18.9583 5.83337Z" fill="#0A090B"/>
<path fill-rule="evenodd" clip-rule="evenodd" d="M16.4583 10C16.4583 10.3452 16.1784 10.625 15.8333 10.625L4.16658 10.625C3.82141 10.625 3.54158 10.3452 3.54158 10C3.54158 9.65482 3.82141 9.375 4.16658 9.375L15.8333 9.375C16.1784 9.375 16.4583 9.65482 16.4583 10Z" fill="#0A090B"/>
<path fill-rule="evenodd" clip-rule="evenodd" d="M13.9583 14.1666C13.9583 14.5118 13.6784 14.7916 13.3333 14.7916L6.66659 14.7916C6.32141 14.7916 6.04159 14.5118 6.04159 14.1666C6.04159 13.8214 6.32141 13.5416 6.66659 13.5416H13.3333C13.6784 13.5416 13.9583 13.8214 13.9583 14.1666Z" fill="#0A090B"/>
</svg>
