<svg width="32" height="32" viewBox="0 0 32 32" fill="none" xmlns="http://www.w3.org/2000/svg">
<path d="M29.0753 13.388H28.0013V13.3327H16.0013V18.666H23.5366C22.4373 21.7707 19.4833 23.9993 16.0013 23.9993C11.5833 23.9993 8.0013 20.4173 8.0013 15.9993C8.0013 11.5813 11.5833 7.99935 16.0013 7.99935C18.0406 7.99935 19.896 8.76868 21.3086 10.0253L25.08 6.25402C22.6986 4.03468 19.5133 2.66602 16.0013 2.66602C8.63797 2.66602 2.66797 8.63602 2.66797 15.9993C2.66797 23.3627 8.63797 29.3327 16.0013 29.3327C23.3646 29.3327 29.3346 23.3627 29.3346 15.9993C29.3346 15.1053 29.2426 14.2327 29.0753 13.388Z" fill="#FFC107"/>
<path d="M4.20312 9.79335L8.58379 13.006C9.76912 10.0713 12.6398 7.99935 15.9991 7.99935C18.0385 7.99935 19.8938 8.76868 21.3065 10.0253L25.0778 6.25402C22.6965 4.03468 19.5111 2.66602 15.9991 2.66602C10.8778 2.66602 6.43646 5.55735 4.20312 9.79335Z" fill="#FF3D00"/>
<path d="M15.9989 29.3338C19.4429 29.3338 22.5722 28.0158 24.9382 25.8725L20.8116 22.3805C19.4279 23.4327 17.7372 24.0018 15.9989 24.0005C12.5309 24.0005 9.58624 21.7891 8.47691 18.7031L4.12891 22.0531C6.33557 26.3711 10.8169 29.3338 15.9989 29.3338Z" fill="#4CAF50"/>
<path d="M29.074 13.3893H28V13.334H16V18.6673H23.5353C23.0095 20.1449 22.0622 21.4361 20.8107 22.3813L20.8127 22.38L24.9393 25.872C24.6473 26.1373 29.3333 22.6673 29.3333 16.0007C29.3333 15.1067 29.2413 14.234 29.074 13.3893Z" fill="#1976D2"/>
</svg>
