<svg width="20" height="20" viewBox="0 0 20 20" fill="none" xmlns="http://www.w3.org/2000/svg">
<path fill-rule="evenodd" clip-rule="evenodd" d="M18.957 5.83398C18.957 6.17916 18.6772 6.45898 18.332 6.45898L1.66536 6.45898C1.32019 6.45898 1.04036 6.17916 1.04036 5.83398C1.04036 5.48881 1.32019 5.20898 1.66536 5.20898L18.332 5.20898C18.6772 5.20898 18.957 5.48881 18.957 5.83398Z" fill="#007171"/>
<path fill-rule="evenodd" clip-rule="evenodd" d="M16.457 10C16.457 10.3452 16.1772 10.625 15.832 10.625L4.16536 10.625C3.82019 10.625 3.54036 10.3452 3.54036 10C3.54036 9.65482 3.82019 9.375 4.16536 9.375L15.832 9.375C16.1772 9.375 16.457 9.65482 16.457 10Z" fill="#007171"/>
<path fill-rule="evenodd" clip-rule="evenodd" d="M13.957 14.166C13.957 14.5112 13.6772 14.791 13.332 14.791L6.66536 14.791C6.32019 14.791 6.04036 14.5112 6.04036 14.166C6.04036 13.8208 6.32019 13.541 6.66536 13.541H13.332C13.6772 13.541 13.957 13.8208 13.957 14.166Z" fill="#007171"/>
</svg>
