<svg width="33" height="32" viewBox="0 0 33 32" fill="none" xmlns="http://www.w3.org/2000/svg">
<g clip-path="url(#clip0_330_3658)">
<path d="M32.5 16C32.5 7.1635 25.3365 0 16.5 0C7.6635 0 0.5 7.16337 0.5 16C0.5 23.986 6.351 30.6054 14 31.8056V20.625H9.9375V16H14V12.475C14 8.465 16.3888 6.25 20.0434 6.25C21.794 6.25 23.625 6.5625 23.625 6.5625V10.5H21.6075C19.6198 10.5 19 11.7334 19 12.9987V16H23.4375L22.7281 20.625H19V31.8056C26.649 30.6054 32.5 23.9861 32.5 16Z" fill="url(#paint0_linear_330_3658)"/>
</g>
<defs>
<linearGradient id="paint0_linear_330_3658" x1="16.5" y1="0" x2="16.5" y2="31.8056" gradientUnits="userSpaceOnUse">
<stop stop-color="#006FFF" stop-opacity="0.77"/>
<stop offset="1" stop-color="#0047A4"/>
</linearGradient>
<clipPath id="clip0_330_3658">
<rect width="32" height="32" fill="white" transform="translate(0.5)"/>
</clipPath>
</defs>
</svg>
