<svg width="216" height="168" viewBox="0 0 216 168" fill="none" xmlns="http://www.w3.org/2000/svg">
<g opacity="0.4">
<circle cx="12" cy="12" r="12" fill="#C8C8C8"/>
<circle cx="60" cy="12" r="12" fill="#C8C8C8"/>
<circle cx="108" cy="12" r="12" fill="#C8C8C8"/>
<circle cx="156" cy="12" r="12" fill="#C8C8C8"/>
<circle cx="204" cy="12" r="12" fill="#C8C8C8"/>
<circle cx="12" cy="60" r="12" fill="#C8C8C8"/>
<circle cx="60" cy="60" r="12" fill="#C8C8C8"/>
<circle cx="108" cy="60" r="12" fill="#C8C8C8"/>
<circle cx="156" cy="60" r="12" fill="#C8C8C8"/>
<circle cx="204" cy="60" r="12" fill="#C8C8C8"/>
<circle cx="12" cy="108" r="12" fill="#C8C8C8"/>
<circle cx="60" cy="108" r="12" fill="#C8C8C8"/>
<circle cx="108" cy="108" r="12" fill="#C8C8C8"/>
<circle cx="156" cy="108" r="12" fill="#C8C8C8"/>
<circle cx="204" cy="108" r="12" fill="#C8C8C8"/>
<circle cx="12" cy="156" r="12" fill="#C8C8C8"/>
<circle cx="60" cy="156" r="12" fill="#C8C8C8"/>
<circle cx="108" cy="156" r="12" fill="#C8C8C8"/>
<circle cx="156" cy="156" r="12" fill="#C8C8C8"/>
<circle cx="204" cy="156" r="12" fill="#C8C8C8"/>
</g>
</svg>
