<svg width="1861" height="1737" viewBox="0 0 1861 1737" fill="none" xmlns="http://www.w3.org/2000/svg">
<path d="M320.322 19.4427C321.756 51.0227 354.822 108.647 327.206 171.027C299.589 233.407 197.747 249.762 187.764 318.867C177.78 387.972 280.343 432.234 279.285 502.731C278.226 573.228 189.95 587.724 182.683 657.253C175.416 726.781 256.714 767.726 244.402 836.468C232.091 905.21 138.226 918.835 123.586 987.213C108.946 1055.59 186.83 1096 174.13 1164.69C161.431 1233.37 63.2979 1246.33 62.6275 1316.88C61.957 1387.44 148.353 1464.51 170.912 1503.36M1773.15 246.044C1774.59 277.624 1807.65 335.248 1780.04 397.628C1752.42 460.008 1650.58 476.363 1640.6 545.468C1630.61 614.573 1733.18 658.835 1732.12 729.332C1731.06 799.829 1642.78 814.325 1635.52 883.854C1628.25 953.383 1709.55 994.328 1697.23 1063.07C1684.92 1131.81 1591.06 1145.44 1576.42 1213.81C1561.78 1282.19 1639.66 1322.61 1626.96 1391.29C1614.26 1459.97 1516.13 1472.93 1515.46 1543.49C1514.79 1614.04 1601.19 1691.11 1623.74 1729.96M1717.28 237.329C1718.71 268.909 1751.78 326.533 1724.16 388.913C1696.54 451.293 1594.7 467.648 1584.72 536.753C1574.73 605.858 1677.3 650.12 1676.24 720.617C1675.18 791.114 1586.9 805.61 1579.64 875.139C1572.37 944.667 1653.67 985.612 1641.36 1054.35C1629.04 1123.1 1535.18 1136.72 1520.54 1205.1C1505.9 1273.48 1583.78 1313.89 1571.08 1382.57C1558.38 1451.25 1460.25 1464.21 1459.58 1534.77C1458.91 1605.33 1545.31 1682.4 1567.87 1721.25M1661.4 228.613C1662.83 260.193 1695.9 317.817 1668.28 380.197C1640.67 442.577 1538.82 458.932 1528.84 528.037C1518.86 597.142 1621.42 641.404 1620.36 711.901C1619.3 782.398 1531.03 796.894 1523.76 866.423C1516.49 935.952 1597.79 976.897 1585.48 1045.64C1573.17 1114.38 1479.3 1128.01 1464.66 1196.38C1450.02 1264.76 1527.91 1305.18 1515.21 1373.86C1502.51 1442.54 1404.37 1455.5 1403.7 1526.05C1403.03 1596.61 1489.43 1673.68 1511.99 1712.53M1605.52 219.898C1606.95 251.478 1640.02 309.102 1612.4 371.482C1584.79 433.862 1482.95 450.217 1472.96 519.322C1462.98 588.427 1565.54 632.689 1564.48 703.186C1563.42 773.683 1475.15 788.179 1467.88 857.708C1460.61 927.236 1541.91 968.182 1529.6 1036.92C1517.29 1105.67 1423.42 1119.29 1408.78 1187.67C1394.14 1256.05 1472.03 1296.46 1459.33 1365.14C1446.63 1433.82 1348.5 1446.78 1347.83 1517.34C1347.15 1587.9 1433.55 1664.97 1456.11 1703.82M1549.64 211.182C1551.08 242.762 1584.14 300.386 1556.53 362.766C1528.91 425.146 1427.07 441.501 1417.08 510.606C1407.1 579.711 1509.66 623.973 1508.6 694.47C1507.55 764.967 1419.27 779.464 1412 848.992C1404.74 918.521 1486.03 959.466 1473.72 1028.21C1461.41 1096.95 1367.55 1110.57 1352.91 1178.95C1338.27 1247.33 1416.15 1287.74 1403.45 1356.43C1390.75 1425.11 1292.62 1438.07 1291.95 1508.62C1291.28 1579.18 1377.67 1656.25 1400.23 1695.1M1493.76 202.467C1495.2 234.047 1528.26 291.671 1500.65 354.051C1473.03 416.431 1371.19 432.786 1361.21 501.891C1351.22 570.996 1453.78 615.258 1452.73 685.755C1451.67 756.252 1363.39 770.748 1356.12 840.277C1348.86 909.806 1430.16 950.751 1417.84 1019.49C1405.53 1088.23 1311.67 1101.86 1297.03 1170.24C1282.39 1238.62 1360.27 1279.03 1347.57 1347.71C1334.87 1416.39 1236.74 1429.35 1236.07 1499.91C1235.4 1570.47 1321.79 1647.54 1344.35 1686.39M1437.89 193.752C1439.32 225.332 1472.39 282.956 1444.77 345.336C1417.15 407.716 1315.31 424.071 1305.33 493.176C1295.34 562.281 1397.91 606.542 1396.85 677.039C1395.79 747.537 1307.51 762.033 1300.25 831.561C1292.98 901.09 1374.28 942.035 1361.97 1010.78C1349.65 1079.52 1255.79 1093.14 1241.15 1161.52C1226.51 1229.9 1304.39 1270.31 1291.69 1338.99C1278.99 1407.68 1180.86 1420.64 1180.19 1491.19C1179.52 1561.75 1265.92 1638.82 1288.48 1677.67M1382.01 185.036C1383.44 216.616 1416.51 274.24 1388.89 336.62C1361.27 399 1259.43 415.355 1249.45 484.46C1239.47 553.565 1342.03 597.827 1340.97 668.324C1339.91 738.821 1251.64 753.317 1244.37 822.846C1237.1 892.375 1318.4 933.32 1306.09 1002.06C1293.78 1070.8 1199.91 1084.43 1185.27 1152.81C1170.63 1221.19 1248.52 1261.6 1235.82 1330.28C1223.12 1398.96 1124.98 1411.92 1124.31 1482.48C1123.64 1553.03 1210.04 1630.11 1232.6 1668.96M1326.13 176.321C1327.56 207.901 1360.63 265.525 1333.01 327.905C1305.4 390.285 1203.55 406.64 1193.57 475.745C1183.59 544.85 1286.15 589.112 1285.09 659.609C1284.03 730.106 1195.76 744.602 1188.49 814.131C1181.22 883.659 1262.52 924.604 1250.21 993.346C1237.9 1062.09 1144.03 1075.71 1129.39 1144.09C1114.75 1212.47 1192.64 1252.88 1179.94 1321.56C1167.24 1390.25 1069.1 1403.2 1068.43 1473.76C1067.76 1544.32 1154.16 1621.39 1176.72 1660.24M1270.25 167.605C1271.68 199.185 1304.75 256.809 1277.13 319.189C1249.52 381.569 1147.68 397.924 1137.69 467.029C1127.71 536.134 1230.27 580.396 1229.21 650.893C1228.16 721.39 1139.88 735.886 1132.61 805.415C1125.34 874.944 1206.64 915.889 1194.33 984.631C1182.02 1053.37 1088.16 1067 1073.52 1135.38C1058.88 1203.75 1136.76 1244.17 1124.06 1312.85C1111.36 1381.53 1013.23 1394.49 1012.56 1465.05C1011.89 1535.6 1098.28 1612.68 1120.84 1651.53M1214.37 158.89C1215.81 190.47 1248.87 248.094 1221.26 310.474C1193.64 372.854 1091.8 389.209 1081.81 458.314C1071.83 527.419 1174.39 571.681 1173.34 642.178C1172.28 712.675 1084 727.171 1076.73 796.7C1069.47 866.228 1150.76 907.173 1138.45 975.915C1126.14 1044.66 1032.28 1058.28 1017.64 1126.66C1003 1195.04 1080.88 1235.45 1068.18 1304.13C1055.48 1372.81 957.349 1385.77 956.678 1456.33C956.008 1526.89 1042.4 1603.96 1064.96 1642.81M1158.49 150.174C1159.93 181.754 1192.99 239.378 1165.38 301.758C1137.76 364.138 1035.92 380.493 1025.94 449.598C1015.95 518.703 1118.52 562.965 1117.46 633.462C1116.4 703.959 1028.12 718.456 1020.86 787.984C1013.59 857.513 1094.89 898.458 1082.57 967.2C1070.26 1035.94 976.399 1049.57 961.759 1117.95C947.119 1186.32 1025 1226.74 1012.3 1295.42C999.603 1364.1 901.47 1377.06 900.8 1447.62C900.129 1518.17 986.525 1595.24 1009.08 1634.09M1102.62 141.459C1104.05 173.039 1137.12 230.663 1109.5 293.043C1081.88 355.423 980.042 371.778 970.058 440.883C960.075 509.988 1062.64 554.25 1061.58 624.747C1060.52 695.244 972.244 709.74 964.977 779.269C957.71 848.797 1039.01 889.743 1026.7 958.484C1014.38 1027.23 920.521 1040.85 905.881 1109.23C891.241 1177.61 969.124 1218.02 956.425 1286.7C943.725 1355.38 845.592 1368.34 844.922 1438.9C844.251 1509.46 930.647 1586.53 953.206 1625.38M1046.74 132.743C1048.17 164.323 1081.24 221.947 1053.62 284.327C1026.01 346.707 924.163 363.063 914.18 432.168C904.196 501.273 1006.76 545.534 1005.7 616.031C1004.64 686.528 916.366 701.025 909.099 770.553C901.832 840.082 983.13 881.027 970.818 949.769C958.507 1018.51 864.643 1032.14 850.003 1100.51C835.363 1168.89 913.246 1209.31 900.546 1277.99C887.847 1346.67 789.714 1359.63 789.044 1430.18C788.373 1500.74 874.769 1577.81 897.328 1616.66M990.86 124.028C992.294 155.608 1025.36 213.232 997.744 275.612C970.127 337.992 868.285 354.347 858.302 423.452C848.318 492.557 950.881 536.819 949.823 607.316C948.764 677.813 860.488 692.309 853.221 761.838C845.954 831.367 927.252 872.312 914.94 941.054C902.629 1009.8 808.764 1023.42 794.124 1091.8C779.484 1160.18 857.368 1200.59 844.668 1269.27C831.968 1337.95 733.836 1350.91 733.165 1421.47C732.495 1492.03 818.891 1569.1 841.45 1607.95M934.982 115.313C936.416 146.893 969.482 204.517 941.866 266.897C914.249 329.277 812.407 345.632 802.424 414.737C792.44 483.842 895.003 528.103 893.945 598.601C892.886 669.098 804.61 683.594 797.343 753.122C790.076 822.651 871.374 863.596 859.062 932.338C846.75 1001.08 752.886 1014.7 738.246 1083.08C723.606 1151.46 801.49 1191.87 788.79 1260.56C776.09 1329.24 677.958 1342.2 677.287 1412.75C676.617 1483.31 763.013 1560.38 785.572 1599.23M879.104 106.597C880.538 138.177 913.604 195.801 885.987 258.181C858.371 320.561 756.529 336.916 746.545 406.021C736.562 475.126 839.125 519.388 838.066 589.885C837.008 660.382 748.732 674.878 741.465 744.407C734.197 813.936 815.496 854.881 803.184 923.623C790.872 992.365 697.008 1005.99 682.368 1074.37C667.728 1142.75 745.612 1183.16 732.912 1251.84C720.212 1320.52 622.08 1333.48 621.409 1404.04C620.739 1474.6 707.134 1551.67 729.694 1590.52M823.225 97.8816C824.66 129.462 857.725 187.086 830.109 249.466C802.493 311.846 700.651 328.201 690.667 397.306C680.684 466.411 783.247 510.673 782.188 581.17C781.13 651.667 692.854 666.163 685.586 735.692C678.319 805.22 759.618 846.165 747.306 914.907C734.994 983.649 641.13 997.274 626.49 1065.65C611.85 1134.03 689.734 1174.44 677.034 1243.13C664.334 1311.81 566.201 1324.77 565.531 1395.32C564.861 1465.88 651.256 1542.95 673.816 1581.8M767.347 89.1662C768.781 120.746 801.847 178.37 774.231 240.75C746.615 303.13 644.773 319.485 634.789 388.59C624.806 457.695 727.369 501.957 726.31 572.454C725.252 642.951 636.975 657.447 629.708 726.976C622.441 796.505 703.739 837.45 691.428 906.192C679.116 974.934 585.252 988.558 570.612 1056.94C555.972 1125.32 633.855 1165.73 621.156 1234.41C608.456 1303.09 510.323 1316.05 509.653 1386.61C508.982 1457.16 595.378 1534.24 617.937 1573.09M711.469 80.4508C712.903 112.031 745.969 169.655 718.353 232.035C690.737 294.415 588.894 310.77 578.911 379.875C568.927 448.98 671.491 493.242 670.432 563.739C669.373 634.236 581.097 648.732 573.83 718.261C566.563 787.789 647.861 828.735 635.55 897.476C623.238 966.218 529.374 979.843 514.734 1048.22C500.094 1116.6 577.977 1157.01 565.277 1225.69C552.578 1294.38 454.445 1307.33 453.775 1377.89C453.104 1448.45 539.5 1525.52 562.059 1564.37M655.591 71.7353C657.025 103.315 690.091 160.939 662.475 223.319C634.858 285.699 533.016 302.054 523.033 371.159C513.049 440.264 615.612 484.526 614.554 555.023C613.495 625.52 525.219 640.017 517.952 709.545C510.685 779.074 591.983 820.019 579.671 888.761C567.36 957.503 473.495 971.127 458.855 1039.51C444.215 1107.88 522.099 1148.3 509.399 1216.98C496.7 1285.66 398.567 1298.62 397.896 1369.18C397.226 1439.73 483.622 1516.81 506.181 1555.66M599.713 63.0199C601.147 94.5999 634.213 152.224 606.596 214.604C578.98 276.984 477.138 293.339 467.155 362.444C457.171 431.549 559.734 475.811 558.676 546.308C557.617 616.805 469.341 631.301 462.074 700.83C454.806 770.358 536.105 811.304 523.793 880.045C511.481 948.787 417.617 962.412 402.977 1030.79C388.337 1099.17 466.221 1139.58 453.521 1208.26C440.821 1276.94 342.689 1289.9 342.018 1360.46C341.348 1431.02 427.744 1508.09 450.303 1546.94M543.835 54.3044C545.269 85.8844 578.335 143.508 550.718 205.888C523.102 268.268 421.26 284.624 411.276 353.729C401.293 422.834 503.856 467.095 502.798 537.592C501.739 608.089 413.463 622.586 406.196 692.114C398.928 761.643 480.227 802.588 467.915 871.33C455.603 940.072 361.739 953.697 347.099 1022.08C332.459 1090.45 410.343 1130.87 397.643 1199.55C384.943 1268.23 286.811 1281.19 286.14 1351.75C285.47 1422.3 371.865 1499.37 394.425 1538.22M487.956 45.589C489.391 77.169 522.456 134.793 494.84 197.173C467.224 259.553 365.382 275.908 355.398 345.013C345.415 414.118 447.978 458.38 446.919 528.877C445.861 599.374 357.585 613.87 350.317 683.399C343.05 752.928 424.349 793.873 412.037 862.615C399.725 931.356 305.861 944.981 291.221 1013.36C276.581 1081.74 354.465 1122.15 341.765 1190.83C329.065 1259.51 230.932 1272.47 230.262 1343.03C229.591 1413.59 315.987 1490.66 338.547 1529.51M432.078 36.8735C433.512 68.4536 466.578 126.078 438.962 188.458C411.346 250.838 309.504 267.193 299.52 336.298C289.537 405.403 392.1 449.664 391.041 520.162C389.983 590.659 301.706 605.155 294.439 674.683C287.172 744.212 368.47 785.157 356.159 853.899C343.847 922.641 249.983 936.266 235.343 1004.64C220.703 1073.02 298.586 1113.44 285.887 1182.12C273.187 1250.8 175.054 1263.76 174.384 1334.31C173.713 1404.87 260.109 1481.94 282.668 1520.79M376.2 28.1581C377.634 59.7381 410.7 117.362 383.084 179.742C355.468 242.122 253.625 258.477 243.642 327.582C233.658 396.687 336.222 440.949 335.163 511.446C334.105 581.943 245.828 596.439 238.561 665.968C231.294 735.497 312.592 776.442 300.281 845.184C287.969 913.926 194.105 927.55 179.465 995.929C164.825 1064.31 242.708 1104.72 230.008 1173.4C217.309 1242.08 119.176 1255.04 118.506 1325.6C117.835 1396.16 204.231 1473.23 226.79 1512.08" stroke="url(#paint0_linear_1182_18642)" stroke-width="5" stroke-linecap="round"/>
<defs>
<linearGradient id="paint0_linear_1182_18642" x1="1313.59" y1="1471.58" x2="1277.79" y2="759.649" gradientUnits="userSpaceOnUse">
<stop stop-color="white"/>
<stop offset="1" stop-color="white" stop-opacity="0"/>
</linearGradient>
</defs>
</svg>
