<svg width="376" height="296" viewBox="0 0 376 296" fill="none" xmlns="http://www.w3.org/2000/svg">
<g opacity="0.2">
<circle cx="28" cy="28" r="28" fill="#C8C8C8"/>
<circle cx="108" cy="28" r="28" fill="#C8C8C8"/>
<circle cx="188" cy="28" r="28" fill="#C8C8C8"/>
<circle cx="268" cy="28" r="28" fill="#C8C8C8"/>
<circle cx="348" cy="28" r="28" fill="#C8C8C8"/>
<circle cx="28" cy="108" r="28" fill="#C8C8C8"/>
<circle cx="108" cy="108" r="28" fill="#C8C8C8"/>
<circle cx="188" cy="108" r="28" fill="#C8C8C8"/>
<circle cx="268" cy="108" r="28" fill="#C8C8C8"/>
<circle cx="348" cy="108" r="28" fill="#C8C8C8"/>
<circle cx="28" cy="188" r="28" fill="#C8C8C8"/>
<circle cx="108" cy="188" r="28" fill="#C8C8C8"/>
<circle cx="188" cy="188" r="28" fill="#C8C8C8"/>
<circle cx="268" cy="188" r="28" fill="#C8C8C8"/>
<circle cx="348" cy="188" r="28" fill="#C8C8C8"/>
<circle cx="28" cy="268" r="28" fill="#C8C8C8"/>
<circle cx="108" cy="268" r="28" fill="#C8C8C8"/>
<circle cx="188" cy="268" r="28" fill="#C8C8C8"/>
<circle cx="268" cy="268" r="28" fill="#C8C8C8"/>
<circle cx="348" cy="268" r="28" fill="#C8C8C8"/>
</g>
</svg>
