<svg width="40" height="40" viewBox="0 0 40 40" fill="none" xmlns="http://www.w3.org/2000/svg">
<path d="M29.7674 17.75C29.7674 18.9166 28.8304 19.8623 27.6744 19.8623C26.5185 19.8623 25.5814 18.9166 25.5814 17.75C25.5814 16.5835 26.5185 15.6378 27.6744 15.6378C28.8304 15.6378 29.7674 16.5835 29.7674 17.75Z" fill="#9ABBBB"/>
<path fill-rule="evenodd" clip-rule="evenodd" d="M29.0545 10.5728C27.4649 10.3571 25.4337 10.3572 22.8694 10.3572H17.1306C14.5663 10.3572 12.5352 10.3571 10.9456 10.5728C9.30961 10.7948 7.9855 11.2625 6.94127 12.3163C5.89704 13.3701 5.43362 14.7064 5.21368 16.3573C4.99996 17.9615 4.99998 20.0113 5 22.5992V22.758C4.99998 25.3459 4.99996 27.3957 5.21368 28.9999C5.43362 30.6508 5.89704 31.9871 6.94127 33.0409C7.9855 34.0948 9.30961 34.5624 10.9455 34.7844C12.5352 35.0001 14.5663 35.0001 17.1306 35H22.8694C25.4337 35.0001 27.4648 35.0001 29.0545 34.7844C30.6904 34.5624 32.0145 34.0948 33.0587 33.0409C34.103 31.9871 34.5664 30.6508 34.7863 28.9999C35 27.3957 35 25.3459 35 22.758V22.5992C35 20.0113 35 17.9615 34.7863 16.3573C34.5664 14.7064 34.103 13.3701 33.0587 12.3163C32.0145 11.2625 30.6904 10.7948 29.0545 10.5728ZM11.2244 12.6662C9.82059 12.8567 9.01179 13.2139 8.42126 13.8099C7.83074 14.4058 7.47678 15.222 7.28804 16.6388C7.13665 17.7751 7.10277 19.1954 7.0952 21.0532L7.80146 20.4295C9.48763 18.9406 12.0289 19.026 13.6132 20.6248L19.5989 26.6655C20.1982 27.2703 21.1417 27.3528 21.8351 26.8609L22.2512 26.5658C24.247 25.1504 26.9471 25.3144 28.7603 26.9612L32.3718 30.2414C32.5194 29.8244 32.6309 29.3268 32.712 28.7184C32.9048 27.2713 32.907 25.3637 32.907 22.6786C32.907 19.9935 32.9048 18.0859 32.712 16.6388C32.5232 15.222 32.1693 14.4058 31.5787 13.8099C30.9882 13.2139 30.1794 12.8567 28.7756 12.6662C27.3416 12.4717 25.4514 12.4694 22.7907 12.4694H17.2093C14.5486 12.4694 12.6584 12.4717 11.2244 12.6662Z" fill="#4F4D55"/>
<g opacity="0.5">
<path d="M27.6929 5.22011C26.4242 4.99994 24.8089 4.99997 22.7953 5H18.2362C16.2226 4.99997 14.6073 4.99994 13.3385 5.22011C12.0247 5.44811 10.9294 5.9339 10.0606 7.05534C9.55949 7.7021 9.22204 8.44633 8.99219 9.28571C9.73617 8.8271 10.5773 8.55683 11.5217 8.39151C13.1218 8.11141 15.1663 8.11143 17.7475 8.11146H23.5241C26.1053 8.11143 28.1498 8.11141 29.7499 8.39151C30.5747 8.5359 31.3208 8.76035 31.9922 9.12042C31.764 8.34831 31.4388 7.65933 30.9709 7.05534C30.1021 5.9339 29.0067 5.44811 27.6929 5.22011Z" fill="#9ABBBB"/>
</g>
</svg>
