<svg width="22" height="22" viewBox="0 0 22 22" fill="none" xmlns="http://www.w3.org/2000/svg">
<path d="M13.9306 14.5714C13.4978 14.5714 13.1389 14.9406 13.1389 15.3857V17.0143C13.1389 17.7634 12.5478 18.3714 11.8194 18.3714H3.90278C3.17444 18.3714 2.58333 17.7634 2.58333 17.0143V3.98571C2.58333 3.23657 3.17444 2.62857 3.90278 2.62857H7.33333V7.78571C7.33333 8.23086 7.69222 8.6 8.125 8.6H13.1389V9.95714C13.1389 10.4023 13.4978 10.7714 13.9306 10.7714C14.3633 10.7714 14.7222 10.4023 14.7222 9.95714V7.78571C14.7222 7.56857 14.6378 7.36229 14.49 7.21029L8.68444 1.23886C8.53667 1.08686 8.33611 1 8.125 1H3.90278C2.29833 1 1 2.33543 1 3.98571V17.0143C1 18.6646 2.29833 20 3.90278 20H11.8194C13.4239 20 14.7222 18.6646 14.7222 17.0143V15.3857C14.7222 14.9406 14.3633 14.5714 13.9306 14.5714ZM8.91667 3.77943L12.02 6.97143H8.91667V3.77943ZM19.9367 12.9863C19.8944 13.084 19.8417 13.1709 19.7678 13.2469L16.6011 16.504C16.4428 16.6669 16.2422 16.7429 16.0417 16.7429C15.8411 16.7429 15.6406 16.6669 15.4822 16.504C15.1761 16.1891 15.1761 15.668 15.4822 15.3531L17.2978 13.4857H8.125C7.69222 13.4857 7.33333 13.1166 7.33333 12.6714C7.33333 12.2263 7.69222 11.8571 8.125 11.8571H17.2978L15.4822 9.98971C15.1761 9.67486 15.1761 9.15372 15.4822 8.83886C15.7883 8.524 16.295 8.524 16.6011 8.83886L19.7678 12.096C19.8417 12.172 19.8944 12.2589 19.9367 12.3566C20.0211 12.552 20.0211 12.78 19.9367 12.9754V12.9863Z" fill="#ADD1CF"/>
</svg>
