<svg width="22" height="22" viewBox="0 0 22 22" fill="none" xmlns="http://www.w3.org/2000/svg">
<g clip-path="url(#clip0_675_11768)">
<path fill-rule="evenodd" clip-rule="evenodd" d="M12.4536 1.83325C12.8857 1.83325 13.3022 1.98586 13.6309 2.26126L13.7499 2.37023L17.7963 6.41658C18.1019 6.7222 18.2885 7.1246 18.3262 7.55175L18.3333 7.71294V18.3333C18.3333 19.2998 17.5854 20.0916 16.6367 20.1616L16.4999 20.1666H10.9999V18.3333H16.4999V9.16658H12.3749C11.6602 9.16658 11.0728 8.62127 11.0062 7.92401L10.9999 7.79158V3.66659H5.49992V10.9999H3.66659V3.66659C3.66659 2.70009 4.41447 1.90827 5.36309 1.83828L5.49992 1.83325H12.4536ZM7.06471 13.259L9.65746 15.8517C10.0154 16.2097 10.0154 16.7901 9.65746 17.1481L7.06471 19.7408C6.70673 20.0988 6.12633 20.0988 5.76836 19.7408C5.41037 19.3828 5.41037 18.8024 5.76836 18.4444L6.79623 17.4166H2.74992C2.24366 17.4166 1.83325 17.0062 1.83325 16.4999C1.83325 15.9936 2.24366 15.5833 2.74992 15.5833H6.79623L5.76836 14.5554C5.41037 14.1974 5.41037 13.617 5.76836 13.259C6.12633 12.901 6.70673 12.901 7.06471 13.259ZM12.8333 4.04628V7.33325H16.1202L12.8333 4.04628Z" fill="#ADD1CF"/>
</g>
<defs>
<clipPath id="clip0_675_11768">
<rect width="22" height="22" fill="white"/>
</clipPath>
</defs>
</svg>
