<svg width="20" height="20" viewBox="0 0 20 20" fill="none" xmlns="http://www.w3.org/2000/svg">
<path fill-rule="evenodd" clip-rule="evenodd" d="M13.3333 4.375C13.5023 4.375 13.6642 4.44352 13.7819 4.56491L17.1153 8.00241C17.3556 8.25021 17.3495 8.64589 17.1017 8.88619C16.8539 9.12648 16.4582 9.12039 16.2179 8.87259L13.9583 6.54233L13.9583 15C13.9583 15.3452 13.6784 15.625 13.3333 15.625C12.9881 15.625 12.7083 15.3452 12.7083 15L12.7083 6.54233L10.4486 8.87259C10.2083 9.12039 9.81263 9.12648 9.56483 8.88619C9.31702 8.64589 9.31094 8.25021 9.55123 8.00241L12.8846 4.56491C13.0023 4.44352 13.1642 4.375 13.3333 4.375ZM6.66659 4.375C7.01176 4.375 7.29158 4.65482 7.29158 5L7.29159 13.4577L9.55123 11.1274C9.79152 10.8796 10.1872 10.8735 10.435 11.1138C10.6828 11.3541 10.6889 11.7498 10.4486 11.9976L7.11527 15.4351C6.99756 15.5565 6.83568 15.625 6.66659 15.625C6.49749 15.625 6.33561 15.5565 6.2179 15.4351L2.88456 11.9976C2.64427 11.7498 2.65036 11.3541 2.89816 11.1138C3.14596 10.8735 3.54165 10.8796 3.78194 11.1274L6.04159 13.4577L6.04159 5C6.04159 4.65482 6.32141 4.375 6.66659 4.375Z" fill="#0A090B"/>
</svg>
