<svg width="20" height="20" viewBox="0 0 20 20" fill="none" xmlns="http://www.w3.org/2000/svg">
<path fill-rule="evenodd" clip-rule="evenodd" d="M18.957 5.83301C18.957 6.17819 18.6772 6.45801 18.332 6.45801L1.66536 6.45801C1.32019 6.45801 1.04036 6.17819 1.04036 5.83301C1.04036 5.48783 1.32019 5.20801 1.66536 5.20801L18.332 5.20801C18.6772 5.20801 18.957 5.48783 18.957 5.83301Z" fill="#018CB9"/>
<path fill-rule="evenodd" clip-rule="evenodd" d="M16.457 10C16.457 10.3452 16.1772 10.625 15.832 10.625L4.16536 10.625C3.82019 10.625 3.54036 10.3452 3.54036 10C3.54036 9.65482 3.82019 9.375 4.16536 9.375L15.832 9.375C16.1772 9.375 16.457 9.65482 16.457 10Z" fill="#018CB9"/>
<path fill-rule="evenodd" clip-rule="evenodd" d="M13.957 14.167C13.957 14.5122 13.6772 14.792 13.332 14.792L6.66536 14.792C6.32019 14.792 6.04036 14.5122 6.04036 14.167C6.04036 13.8218 6.32019 13.542 6.66536 13.542H13.332C13.6772 13.542 13.957 13.8218 13.957 14.167Z" fill="#018CB9"/>
</svg>
