<svg width="24" height="24" viewBox="0 0 24 24" fill="none" xmlns="http://www.w3.org/2000/svg">
<g clip-path="url(#clip0_737_61683)">
<path d="M13.0131 21.6861L13.0128 21.6869C12.9418 21.8819 12.7751 22.0218 12.5673 22.0497L12.5667 22.0498C12.1691 22.1009 11.7692 22.1131 11.3689 22.086L11.3689 22.086C9.89495 21.986 8.56935 21.3418 7.58705 20.3513C6.5164 19.2717 5.85356 17.78 5.85356 16.1318C5.85356 14.4849 6.51641 12.9928 7.58703 11.9128L7.58706 11.9127C8.65813 10.8332 10.1384 10.1645 11.7728 10.1645C12.3398 10.1645 12.8915 10.2466 13.4185 10.4003M13.0131 21.6861L7.65805 11.9832C8.71122 10.9217 10.1663 10.2645 11.7728 10.2645C12.3301 10.2645 12.8724 10.3452 13.3905 10.4963C13.7697 10.6066 14.1324 10.7547 14.4747 10.9356L14.4214 10.7955M13.0131 21.6861C13.1503 21.2986 12.8313 20.8976 12.4234 20.9518C12.0886 20.9959 11.7406 21.0048 11.4018 20.9783L11.4016 20.9783C10.2193 20.8879 9.15595 20.3667 8.36503 19.5696C7.49239 18.6897 6.95306 17.4746 6.95306 16.1318C6.95306 14.7898 7.4924 13.5744 8.36503 12.6949L8.36504 12.6949C9.23724 11.8154 10.4423 11.2719 11.7728 11.2719C12.2424 11.2719 12.6919 11.3376 13.113 11.4602C13.372 11.5357 13.6223 11.6324 13.8618 11.7489C13.6234 11.8803 13.5013 12.166 13.5825 12.4372L13.5825 12.4374C13.6762 12.7487 14.0034 12.9258 14.3141 12.8309L14.3143 12.8308M13.0131 21.6861L14.3143 12.8308M13.4185 10.4003L13.3905 10.4961L13.4184 10.4003C13.4184 10.4003 13.4185 10.4003 13.4185 10.4003ZM13.4185 10.4003C13.7676 10.5018 14.1029 10.6348 14.4214 10.7955M14.4214 10.7955C14.4662 10.8181 14.5107 10.8413 14.5548 10.865L15.4994 10.3221C15.4993 10.322 15.4993 10.3219 15.4992 10.3218C15.3844 10.0162 15.0443 9.86267 14.7411 9.97928L14.741 9.97931C14.4378 10.0962 14.2861 10.4376 14.4012 10.7424L14.4013 10.7426L14.4214 10.7955ZM14.3143 12.8308L15.6125 12.4303L14.3143 12.8308ZM16.1998 14.2167L16.1994 14.2158C16.094 13.9651 15.9678 13.7267 15.8216 13.4969L16.1998 14.2167ZM16.1998 14.2167C16.3226 14.5008 16.6533 14.6315 16.9357 14.4999M16.1998 14.2167L16.9357 14.4999M16.9357 14.4999C16.9357 14.4999 16.9358 14.4999 16.9358 14.4999L16.8935 14.4093L16.9357 14.4999ZM8.06248 7.11257H8.06246L13.9899 7.21343L13.9899 7.11343H13.9897L8.06248 7.11257ZM13.6955 17.2449L13.6953 17.2448L11.8809 16.441V13.7457C11.8809 13.4413 11.6367 13.1919 11.3318 13.1919C11.027 13.1919 10.7823 13.4411 10.7823 13.7457V16.8014C10.7823 17.0367 10.9283 17.2389 11.1353 17.3184L13.2525 18.257L13.2526 18.257C13.531 18.3801 13.8547 18.2525 13.9768 17.9734L13.9768 17.9733C14.0981 17.6946 13.973 17.3683 13.6955 17.2449ZM13.9583 20.4771L13.9576 20.4775C13.5171 20.7051 13.574 21.3584 14.0514 21.5017L14.0523 21.502C14.1893 21.5416 14.3277 21.5289 14.4553 21.4648L14.4557 21.4646C14.7506 21.3148 15.0344 21.1393 15.3 20.9409L15.3001 20.9408C15.4561 20.8239 15.5363 20.639 15.5198 20.4458L15.5197 20.4444C15.4773 20.0161 14.9912 19.7955 14.6446 20.0525L14.6445 20.0525C14.4281 20.2134 14.1986 20.3555 13.9583 20.4771ZM15.7547 18.8856L15.7546 18.8858C15.5053 19.2604 15.7844 19.7667 16.2359 19.7472L16.2373 19.7472C16.4111 19.7373 16.5688 19.6508 16.668 19.5025L16.6681 19.5023C16.853 19.2251 17.0131 18.9348 17.1503 18.6308L17.1507 18.63C17.3083 18.2719 17.0623 17.8671 16.6702 17.8498L16.6691 17.8497C16.4446 17.8424 16.2408 17.9691 16.1484 18.1753L16.2394 18.2161L16.1485 18.1751C16.0362 18.4239 15.9061 18.6594 15.7547 18.8856ZM16.5649 16.6063L16.5649 16.6065C16.5453 16.8228 16.6491 17.027 16.8355 17.137L16.8365 17.1375C17.1873 17.3391 17.6189 17.112 17.6593 16.7114L17.6593 16.7109C17.6909 16.378 17.6957 16.0481 17.6731 15.7139L17.6731 15.7136C17.6596 15.5215 17.5484 15.3518 17.3797 15.2623L17.3792 15.262C16.9969 15.0621 16.5464 15.3612 16.5762 15.7913C16.5946 16.0643 16.5904 16.3333 16.5649 16.6063ZM18.4441 4.62058L18.4441 4.62057L18.4429 4.61941L13.8649 0.125122C13.7516 -0.0148332 13.5792 -0.1 13.3913 -0.1H5.931C5.35996 -0.1 4.9 0.364437 4.9 0.938325V13.0735L5.09034 13.1163C5.36196 12.544 5.70793 12.0118 6.11611 11.5325L6.13998 11.5045V11.4677V1.14349H12.769V5.29557C12.769 5.63804 13.0446 5.92182 13.3913 5.92182H17.6104V11.6604V11.7103L17.6503 11.7403C18.102 12.0804 18.3597 12.6112 18.6158 13.1387C18.6306 13.1691 18.6453 13.1994 18.6601 13.2297L18.85 13.1859V5.34923C18.85 5.20512 18.7969 5.07325 18.7218 4.95435C18.6469 4.83585 18.5465 4.72457 18.4441 4.62058ZM14.0094 2.06744L16.7689 4.67361H14.0094V2.06744ZM10.884 4.10272H8.06246C7.90451 4.10272 7.78078 4.17047 7.69865 4.27332C7.61853 4.37365 7.58099 4.50304 7.58061 4.62801C7.58024 4.75298 7.61701 4.88262 7.69714 4.98321C7.77933 5.0864 7.90354 5.15391 8.06246 5.15391H10.884C11.0416 5.15391 11.1651 5.08606 11.2471 4.98324C11.327 4.88295 11.3646 4.75361 11.365 4.62869C11.3655 4.50377 11.3289 4.37413 11.249 4.27351C11.1669 4.17026 11.0428 4.10272 10.884 4.10272Z" fill="#ADD1CF" stroke="#ADD1CF" stroke-width="0.2"/>
</g>
<defs>
<clipPath id="clip0_737_61683">
<rect width="13.75" height="22" fill="white" transform="translate(5)"/>
</clipPath>
</defs>
</svg>
