<svg width="26" height="26" viewBox="0 0 26 26" fill="none" xmlns="http://www.w3.org/2000/svg">
<path d="M12.988 19.0833C13.2973 19.0833 13.5586 18.9765 13.7718 18.7629C13.9849 18.5494 14.0915 18.2879 14.0915 17.9786C14.0915 17.6693 13.9848 17.408 13.7712 17.1948C13.5576 16.9816 13.2961 16.875 12.9868 16.875C12.6775 16.875 12.4162 16.9818 12.203 17.1954C11.9898 17.409 11.8832 17.6704 11.8832 17.9797C11.8832 18.2891 11.99 18.5503 12.2036 18.7635C12.4172 18.9767 12.6786 19.0833 12.988 19.0833ZM12.2207 15.2042H13.7457C13.7596 14.6708 13.8377 14.2448 13.9801 13.926C14.1224 13.6073 14.4679 13.1848 15.0165 12.6584C15.4929 12.182 15.8579 11.742 16.1113 11.3386C16.3648 10.9351 16.4915 10.4586 16.4915 9.90913C16.4915 8.97669 16.1565 8.24831 15.4864 7.72399C14.8162 7.19969 14.0235 6.93755 13.1082 6.93755C12.2041 6.93755 11.4558 7.17887 10.8635 7.66151C10.2711 8.14414 9.84854 8.71252 9.59576 9.36668L10.9874 9.925C11.1193 9.56528 11.345 9.21494 11.6645 8.87398C11.9839 8.533 12.4582 8.36251 13.0874 8.36251C13.7277 8.36251 14.2009 8.53786 14.5072 8.88857C14.8134 9.23927 14.9666 9.62503 14.9666 10.0459C14.9666 10.4139 14.8617 10.7507 14.652 11.0563C14.4423 11.3618 14.1749 11.657 13.8499 11.9417C13.1388 12.5834 12.6895 13.0952 12.502 13.4771C12.3145 13.8591 12.2207 14.4347 12.2207 15.2042ZM13.0017 23.2917C11.5783 23.2917 10.2403 23.0215 8.98785 22.4813C7.73535 21.9411 6.64586 21.208 5.71938 20.2819C4.79287 19.3558 4.05939 18.2668 3.51894 17.0148C2.97848 15.7629 2.70825 14.4253 2.70825 13.0018C2.70825 11.5784 2.97836 10.2404 3.51859 8.98797C4.05881 7.73547 4.79195 6.64599 5.71802 5.7195C6.64411 4.793 7.73312 4.05952 8.98506 3.51906C10.237 2.9786 11.5747 2.70837 12.9981 2.70837C14.4215 2.70837 15.7595 2.97849 17.0119 3.51871C18.2644 4.05893 19.3539 4.79208 20.2804 5.71815C21.2069 6.64423 21.9404 7.73325 22.4808 8.98518C23.0213 10.2371 23.2915 11.5748 23.2915 12.9982C23.2915 14.4216 23.0214 15.7596 22.4812 17.0121C21.941 18.2646 21.2078 19.354 20.2818 20.2805C19.3557 21.207 18.2667 21.9405 17.0147 22.481C15.7628 23.0214 14.4251 23.2917 13.0017 23.2917ZM12.9999 21.6667C15.4193 21.6667 17.4686 20.8271 19.1478 19.1479C20.827 17.4688 21.6666 15.4195 21.6666 13C21.6666 10.5806 20.827 8.53126 19.1478 6.8521C17.4686 5.17293 15.4193 4.33335 12.9999 4.33335C10.5804 4.33335 8.53114 5.17293 6.85198 6.8521C5.17281 8.53126 4.33323 10.5806 4.33323 13C4.33323 15.4195 5.17281 17.4688 6.85198 19.1479C8.53114 20.8271 10.5804 21.6667 12.9999 21.6667Z" fill="#ADD1CF"/>
</svg>
